<svg width="74" height="74" viewBox="0 0 74 74" fill="none" xmlns="http://www.w3.org/2000/svg">
<path d="M61.6667 27.7498C59.215 15.4614 47.8312 6.1665 34.1611 6.1665C18.702 6.1665 6.16675 18.0534 6.16675 32.7141C6.16675 39.7581 9.0595 46.1585 13.7781 50.9081C14.817 51.9539 15.5106 53.3827 15.2307 54.8533C14.7687 57.2576 13.7217 59.5003 12.1886 61.3695C16.2222 62.1132 20.4163 61.4436 24.0131 59.5475C25.2846 58.8772 25.9203 58.5421 26.369 58.4742C26.683 58.4266 27.0921 58.471 27.7501 58.5839" stroke="#35D2DA" stroke-width="5.25" stroke-linecap="round" stroke-linejoin="round"/>
<path d="M33.9167 50.1401C33.9167 59.0994 41.5103 66.3636 50.8751 66.3636C51.9762 66.365 53.0742 66.2632 54.1558 66.0601C54.9344 65.9139 55.3236 65.8408 55.5954 65.8823C55.8672 65.9238 56.2523 66.1286 57.0225 66.5382C59.2014 67.6969 61.7421 68.1062 64.1855 67.6517C63.2568 66.5094 62.6226 65.1388 62.3427 63.6695C62.1731 62.7708 62.5933 61.8977 63.2226 61.2586C66.0811 58.3561 67.8334 54.4447 67.8334 50.1401C67.8334 41.1807 60.2399 33.9165 50.8751 33.9165C41.5103 33.9165 33.9167 41.1807 33.9167 50.1401Z" stroke="#35D2DA" stroke-width="5.25" stroke-linejoin="round"/>
</svg>
