<svg width="74" height="74" viewBox="0 0 74 74" fill="none" xmlns="http://www.w3.org/2000/svg">
<path d="M19.5281 8.48372C16.2957 9.07968 13.9167 10.1338 12.036 11.9982C10.1552 13.8626 9.09187 16.2208 8.49069 19.4252M43.167 7.72377C41.3492 7.7085 39.3845 7.7085 37.2573 7.7085C35.13 7.7085 33.1653 7.7085 31.3475 7.72377M7.72407 31.1418C7.70866 32.9438 7.70866 34.8915 7.70866 37.0002C7.70866 39.109 7.70866 41.0567 7.72407 42.8587M8.49069 54.5752C9.09187 57.7795 10.1552 60.1378 12.036 62.0022C13.9167 63.8666 16.2957 64.9206 19.5281 65.5166M43.167 66.2766C41.3499 66.2918 39.3836 66.2918 37.2573 66.2918C35.1303 66.2918 33.1657 66.2918 31.348 66.2766" stroke="#35D2DA" stroke-width="4.625" stroke-linecap="round" stroke-linejoin="round"/>
<path d="M53.9587 7.7085C57.3316 8.32065 59.814 9.40339 61.7766 11.3185C66.292 15.7248 66.292 22.8166 66.292 37.0002C66.292 51.1838 66.292 58.2756 61.7765 62.6819C59.814 64.5969 57.3316 65.6797 53.9587 66.2918" stroke="#35D2DA" stroke-width="4.625" stroke-linecap="round" stroke-linejoin="round"/>
</svg>
