<svg width="816" height="206" viewBox="0 0 816 206" fill="none" xmlns="http://www.w3.org/2000/svg">
<circle cx="681.5" cy="70.5" r="70.5" fill="#201C4D"/>
<circle cx="409.5" cy="71.5" r="70.5" fill="#201C4D"/>
<circle cx="137.5" cy="70.5" r="70.5" fill="#201C4D"/>
<path fill-rule="evenodd" clip-rule="evenodd" d="M390.446 45.3368C403.146 36.7078 421.472 41.3381 428.2 55.1338C428.671 56.0994 428.27 57.2639 427.304 57.7349C426.339 58.2058 425.174 57.8048 424.703 56.8392C419.042 45.2304 403.426 41.2211 392.632 48.5548C391.743 49.1585 390.533 48.9275 389.93 48.0389C389.326 47.1503 389.557 45.9405 390.446 45.3368ZM403.117 54.7498C403.117 53.6755 403.988 52.8046 405.063 52.8046C412.761 52.8046 418.841 59.3289 418.841 67.1748C418.841 68.2491 417.97 69.12 416.896 69.12C415.822 69.12 414.951 68.2491 414.951 67.1748C414.951 61.2965 410.435 56.695 405.063 56.695C403.988 56.695 403.117 55.8241 403.117 54.7498ZM384.481 54.313C385.449 54.7803 385.854 55.9432 385.387 56.9106C384.075 59.6281 383.341 62.6617 383.341 65.866V79.0386C383.341 86.187 386.999 92.5227 392.632 96.3498C393.521 96.9535 393.751 98.1633 393.148 99.0519C392.544 99.9406 391.334 100.171 390.446 99.5678C383.816 95.0636 379.451 87.5573 379.451 79.0386V65.866C379.451 62.0606 380.323 58.45 381.884 55.2186C382.351 54.2513 383.514 53.8458 384.481 54.313ZM395.17 60.0776C396.149 60.5204 396.583 61.6729 396.14 62.6516C395.523 64.0167 395.174 65.549 395.174 67.1748V77.8248C395.174 83.7032 399.69 88.3046 405.063 88.3046C405.479 88.3046 405.888 88.2775 406.289 88.225C407.354 88.0855 408.331 88.8359 408.47 89.9012C408.61 90.9664 407.859 91.943 406.794 92.0824C406.226 92.1568 405.648 92.195 405.063 92.195C397.365 92.195 391.284 85.6707 391.284 77.8248V67.1748C391.284 64.9893 391.753 62.9108 392.596 61.048C393.039 60.0692 394.191 59.6347 395.17 60.0776ZM428.729 65.6241C429.804 65.6241 430.674 66.495 430.674 67.5693V71.0207C430.674 72.095 429.804 72.9659 428.729 72.9659C427.655 72.9659 426.784 72.095 426.784 71.0207V67.5693C426.784 66.495 427.655 65.6241 428.729 65.6241ZM405.063 66.1171C406.137 66.1171 407.008 66.988 407.008 68.0623V76.9373C407.008 78.0116 406.137 78.8825 405.063 78.8825C403.988 78.8825 403.117 78.0116 403.117 76.9373V68.0623C403.117 66.988 403.988 66.1171 405.063 66.1171ZM411.409 101.262C411.616 102.316 410.93 103.338 409.876 103.546C407.153 104.082 404.301 104.186 401.413 103.784C400.349 103.636 399.607 102.653 399.755 101.589C399.903 100.525 400.886 99.7824 401.95 99.9306C404.398 100.272 406.814 100.183 409.124 99.7287C410.178 99.5213 411.201 100.208 411.409 101.262Z" fill="white"/>
<path fill-rule="evenodd" clip-rule="evenodd" d="M425.772 80.362C420.31 80.362 415.883 84.789 415.883 90.2501C415.883 95.7112 420.31 100.138 425.772 100.138C431.233 100.138 435.66 95.7112 435.66 90.2501C435.66 84.789 431.233 80.362 425.772 80.362ZM411.993 90.2501C411.993 82.6404 418.162 76.4716 425.772 76.4716C433.381 76.4716 439.55 82.6404 439.55 90.2501C439.55 97.8598 433.381 104.029 425.772 104.029C418.162 104.029 411.993 97.8598 411.993 90.2501ZM431.429 86.6984C431.938 87.6444 431.584 88.824 430.638 89.3333C429.676 89.8513 428.585 91.1276 427.643 92.5538C427.201 93.223 426.838 93.852 426.586 94.3139C426.461 94.544 426.364 94.7301 426.3 94.8561C426.268 94.9191 426.244 94.9668 426.229 94.9973L426.213 95.0298L426.211 95.0348C425.901 95.6827 425.258 96.1072 424.54 96.138C423.822 96.1688 423.146 95.8012 422.781 95.182C422.356 94.4612 421.866 93.9742 421.495 93.6741C421.31 93.5243 421.158 93.4233 421.063 93.3655C421.016 93.3367 420.984 93.319 420.971 93.3117C420.969 93.3108 420.968 93.31 420.966 93.3094C420.013 92.8395 419.613 91.6893 420.071 90.7274C420.534 89.7577 421.695 89.3467 422.665 89.8093L421.827 91.5649C422.665 89.8093 422.665 89.8096 422.666 89.8099L422.667 89.8105L422.67 89.8118L422.676 89.8147L422.69 89.8214L422.724 89.8383C422.749 89.8513 422.78 89.8675 422.817 89.8872C422.89 89.9266 422.984 89.9798 423.096 90.0481C423.318 90.1845 423.612 90.3823 423.943 90.6508C424.006 90.7017 424.071 90.7553 424.136 90.8116C424.22 90.6797 424.307 90.5454 424.397 90.4094C425.373 88.9313 426.912 86.9206 428.794 85.9077C429.74 85.3984 430.92 85.7525 431.429 86.6984Z" fill="white"/>
<path fill-rule="evenodd" clip-rule="evenodd" d="M685.308 44.9608C683.989 43.7784 681.97 43.7784 680.652 44.9608C678.752 46.6655 676.5 48.9494 674.739 51.5013C672.957 54.0819 671.824 56.724 671.824 59.1907C671.824 64.0892 675.922 69.3431 682.98 69.3431C690.038 69.3431 694.135 64.0892 694.135 59.1907C694.135 56.724 693.002 54.0819 691.221 51.5013C689.46 48.9494 687.208 46.6655 685.308 44.9608ZM677.772 41.7491C680.729 39.0966 685.231 39.0966 688.188 41.7491C690.224 43.575 692.745 46.1143 694.772 49.0505C696.778 51.9577 698.449 55.4682 698.449 59.1907C698.449 66.4283 692.464 73.6573 682.98 73.6573C673.496 73.6573 667.51 66.4283 667.51 59.1907C667.51 55.4682 669.181 51.9577 671.188 49.0505C673.215 46.1143 675.736 43.575 677.772 41.7491Z" fill="white"/>
<path fill-rule="evenodd" clip-rule="evenodd" d="M655.676 77.4169C655.676 76.2255 656.642 75.2598 657.833 75.2598H664.918C666.112 75.2598 667.291 75.5285 668.364 76.0478L674.405 78.9706C674.889 79.2045 675.426 79.3279 675.972 79.3279H679.057C683.164 79.3279 686.616 82.5676 686.616 86.712C686.616 87.8402 685.848 88.7631 684.837 89.0424L677.321 91.1206C675.47 91.6324 673.487 91.4553 671.76 90.6193L665.302 87.4948C664.229 86.976 663.781 85.686 664.3 84.6135C664.818 83.5411 666.108 83.0924 667.181 83.6113L673.639 86.7358C674.419 87.1136 675.325 87.1963 676.171 86.9624L681.967 85.3598C681.449 84.3621 680.371 83.6421 679.057 83.6421H675.972C674.779 83.6421 673.599 83.3734 672.526 82.8541L666.485 79.9313C666.002 79.6974 665.465 79.574 664.918 79.574H657.833C656.642 79.574 655.676 78.6082 655.676 77.4169Z" fill="white"/>
<path fill-rule="evenodd" clip-rule="evenodd" d="M702.818 84.1299C701.836 82.7701 700.185 82.2311 698.687 82.6977L698.679 82.7003L685.092 86.8747C683.953 87.2246 682.746 86.585 682.396 85.4462C682.047 84.3074 682.686 83.1006 683.825 82.7507L697.404 78.5788C697.405 78.5783 697.407 78.5779 697.408 78.5774C700.726 77.5456 704.281 78.7865 706.315 81.6041C708.133 84.1214 707.43 87.7523 704.702 89.3264L682.468 102.155C680.545 103.264 678.266 103.539 676.139 102.908L657.22 97.2939C656.078 96.955 655.427 95.7544 655.765 94.6123C656.104 93.4701 657.305 92.819 658.447 93.1579L677.366 98.7718C678.35 99.0638 679.407 98.9402 680.312 98.4179L702.546 85.5896C702.997 85.3295 703.182 84.6339 702.818 84.1299Z" fill="white"/>
<path fill-rule="evenodd" clip-rule="evenodd" d="M132.098 38L138.316 38C143.373 37.9999 147.398 37.9999 150.551 38.4323C153.807 38.8789 156.461 39.8233 158.553 41.9566C160.443 43.8844 161.376 46.2762 161.858 49.1718C162.329 52.0069 162.399 55.5366 162.412 59.8871L162.412 59.8934L162.412 63.6434C162.412 64.8617 161.424 65.8493 160.206 65.8493C158.988 65.8493 158 64.8617 158 63.6434V59.8957C157.987 55.4893 157.909 52.3189 157.506 49.8958C157.113 47.5324 156.444 46.1074 155.403 45.0453C154.264 43.8835 152.703 43.1804 149.952 42.8032C147.133 42.4166 143.412 42.4118 138.148 42.4118L132.266 42.4118C127.003 42.4118 123.282 42.4166 120.463 42.8032C117.712 43.1804 116.151 43.8835 115.012 45.0453C113.867 46.213 113.169 47.8231 112.797 50.6499C112.416 53.5357 112.412 57.3414 112.412 62.7059L112.412 77.0809C112.412 82.4454 112.416 86.2511 112.797 89.1369C113.169 91.9637 113.867 93.5737 115.012 94.7415C116.027 95.7771 117.372 96.4433 119.579 96.8437C121.852 97.2564 124.827 97.3518 128.966 97.3704C130.184 97.3758 131.167 98.3678 131.162 99.5861C131.156 100.804 130.164 101.788 128.946 101.782C124.853 101.764 121.502 101.677 118.791 101.185C116.013 100.68 113.714 99.7197 111.861 97.8302C109.776 95.7029 108.858 93.0138 108.423 89.7135C108 86.5058 108 82.4088 108 77.2433L108 62.5434C108 57.3779 108 53.281 108.423 50.0733C108.858 46.773 109.776 44.0839 111.861 41.9566C113.953 39.8233 116.607 38.8789 119.863 38.4323C123.017 37.9999 127.041 37.9999 132.098 38Z" fill="white"/>
<path fill-rule="evenodd" clip-rule="evenodd" d="M133 85.5184C133 76.5336 140.284 69.25 149.268 69.25C158.253 69.25 165.537 76.5336 165.537 85.5184C165.537 89.2239 164.298 92.6401 162.212 95.3753L168.011 101.142C168.875 102.001 168.879 103.397 168.02 104.261C167.161 105.125 165.765 105.129 164.901 104.27L159.088 98.4904C156.359 100.559 152.957 101.787 149.268 101.787C140.284 101.787 133 94.5032 133 85.5184ZM157.633 93.9218C159.79 91.7747 161.125 88.8024 161.125 85.5184C161.125 78.9702 155.817 73.6618 149.268 73.6618C142.72 73.6618 137.412 78.9702 137.412 85.5184C137.412 92.0666 142.72 97.375 149.268 97.375C152.533 97.375 155.489 96.056 157.633 93.9218Z" fill="white"/>
<path fill-rule="evenodd" clip-rule="evenodd" d="M119.669 55.8751C119.669 54.6568 120.657 53.6692 121.875 53.6692H146.875C148.093 53.6692 149.081 54.6568 149.081 55.8751C149.081 57.0934 148.093 58.081 146.875 58.081H121.875C120.657 58.081 119.669 57.0934 119.669 55.8751Z" fill="white"/>
<path fill-rule="evenodd" clip-rule="evenodd" d="M119.669 68.375C119.669 67.1567 120.657 66.1691 121.875 66.1691H131.25C132.468 66.1691 133.456 67.1567 133.456 68.375C133.456 69.5933 132.468 70.5809 131.25 70.5809H121.875C120.657 70.5809 119.669 69.5933 119.669 68.375Z" fill="white"/>
<path d="M352.772 197V179.72H358.016C358.2 179.72 358.512 179.724 358.952 179.732C359.4 179.74 359.828 179.772 360.236 179.828C361.548 180.012 362.644 180.5 363.524 181.292C364.404 182.084 365.064 183.092 365.504 184.316C365.944 185.54 366.164 186.888 366.164 188.36C366.164 189.832 365.944 191.18 365.504 192.404C365.064 193.628 364.404 194.636 363.524 195.428C362.644 196.22 361.548 196.708 360.236 196.892C359.836 196.94 359.408 196.972 358.952 196.988C358.496 196.996 358.184 197 358.016 197H352.772ZM354.596 195.308H358.016C358.344 195.308 358.696 195.3 359.072 195.284C359.456 195.26 359.784 195.22 360.056 195.164C361.064 194.988 361.876 194.58 362.492 193.94C363.116 193.3 363.572 192.5 363.86 191.54C364.148 190.572 364.292 189.512 364.292 188.36C364.292 187.2 364.148 186.136 363.86 185.168C363.572 184.2 363.116 183.4 362.492 182.768C361.868 182.136 361.056 181.732 360.056 181.556C359.784 181.5 359.452 181.464 359.06 181.448C358.676 181.424 358.328 181.412 358.016 181.412H354.596V195.308ZM368.873 197V179.72H370.637V197H368.873ZM372.771 197L378.723 179.72H381.063L387.015 197H385.179L379.527 180.704H380.223L374.607 197H372.771ZM375.423 192.812V191.156H384.351V192.812H375.423ZM395.373 197.36C394.157 197.36 393.061 197.148 392.085 196.724C391.109 196.3 390.277 195.696 389.589 194.912C388.909 194.128 388.389 193.184 388.029 192.08C387.669 190.968 387.489 189.728 387.489 188.36C387.489 186.552 387.801 184.976 388.425 183.632C389.057 182.28 389.961 181.232 391.137 180.488C392.313 179.744 393.725 179.372 395.373 179.372C397.213 179.372 398.709 179.804 399.861 180.668C401.021 181.524 401.829 182.676 402.285 184.124L400.509 184.556C400.133 183.5 399.513 182.656 398.649 182.024C397.793 181.392 396.725 181.076 395.445 181.076C394.093 181.068 392.969 181.372 392.073 181.988C391.177 182.596 390.501 183.452 390.045 184.556C389.597 185.652 389.369 186.92 389.361 188.36C389.353 189.8 389.573 191.068 390.021 192.164C390.477 193.252 391.157 194.108 392.061 194.732C392.965 195.348 394.093 195.66 395.445 195.668C396.685 195.668 397.709 195.428 398.517 194.948C399.325 194.468 399.937 193.78 400.353 192.884C400.777 191.988 401.017 190.928 401.073 189.704H397.089V188.192H402.921C402.945 188.376 402.957 188.572 402.957 188.78C402.965 188.98 402.969 189.124 402.969 189.212C402.969 190.772 402.689 192.168 402.129 193.4C401.569 194.624 400.725 195.592 399.597 196.304C398.477 197.008 397.069 197.36 395.373 197.36ZM405.107 197V179.72H406.883L416.399 193.88V179.72H418.175V197H416.399L406.883 182.828V197H405.107ZM428.268 197.36C426.548 197.36 425.096 196.98 423.912 196.22C422.728 195.452 421.832 194.392 421.224 193.04C420.616 191.688 420.312 190.128 420.312 188.36C420.312 186.592 420.616 185.032 421.224 183.68C421.832 182.328 422.728 181.272 423.912 180.512C425.096 179.744 426.548 179.36 428.268 179.36C429.996 179.36 431.448 179.744 432.624 180.512C433.808 181.272 434.704 182.328 435.312 183.68C435.928 185.032 436.236 186.592 436.236 188.36C436.236 190.128 435.928 191.688 435.312 193.04C434.704 194.392 433.808 195.452 432.624 196.22C431.448 196.98 429.996 197.36 428.268 197.36ZM428.268 195.668C429.62 195.668 430.748 195.36 431.652 194.744C432.556 194.128 433.232 193.272 433.68 192.176C434.136 191.072 434.364 189.8 434.364 188.36C434.364 186.92 434.136 185.652 433.68 184.556C433.232 183.46 432.556 182.604 431.652 181.988C430.748 181.372 429.62 181.06 428.268 181.052C426.916 181.052 425.792 181.36 424.896 181.976C424 182.592 423.324 183.452 422.868 184.556C422.42 185.652 422.192 186.92 422.184 188.36C422.176 189.8 422.396 191.068 422.844 192.164C423.3 193.252 423.98 194.108 424.884 194.732C425.788 195.348 426.916 195.66 428.268 195.668ZM444.375 197.36C443.167 197.36 442.079 197.16 441.111 196.76C440.151 196.352 439.355 195.776 438.723 195.032C438.099 194.288 437.691 193.404 437.499 192.38L439.299 192.08C439.587 193.2 440.195 194.08 441.123 194.72C442.051 195.352 443.159 195.668 444.447 195.668C445.295 195.668 446.055 195.536 446.727 195.272C447.399 195 447.927 194.616 448.311 194.12C448.695 193.624 448.887 193.036 448.887 192.356C448.887 191.908 448.807 191.528 448.647 191.216C448.487 190.896 448.275 190.632 448.011 190.424C447.747 190.216 447.459 190.044 447.147 189.908C446.835 189.764 446.531 189.648 446.235 189.56L441.855 188.252C441.327 188.1 440.839 187.908 440.391 187.676C439.943 187.436 439.551 187.152 439.215 186.824C438.887 186.488 438.631 186.096 438.447 185.648C438.263 185.2 438.171 184.688 438.171 184.112C438.171 183.136 438.427 182.292 438.939 181.58C439.451 180.868 440.151 180.32 441.039 179.936C441.927 179.552 442.939 179.364 444.075 179.372C445.227 179.372 446.255 179.576 447.159 179.984C448.071 180.392 448.823 180.976 449.415 181.736C450.007 182.488 450.399 183.38 450.591 184.412L448.743 184.748C448.623 183.996 448.347 183.344 447.915 182.792C447.483 182.24 446.931 181.816 446.259 181.52C445.595 181.216 444.863 181.06 444.063 181.052C443.287 181.052 442.595 181.184 441.987 181.448C441.387 181.704 440.911 182.056 440.559 182.504C440.207 182.952 440.031 183.464 440.031 184.04C440.031 184.624 440.191 185.092 440.511 185.444C440.839 185.796 441.239 186.072 441.711 186.272C442.191 186.472 442.655 186.636 443.103 186.764L446.487 187.76C446.839 187.856 447.251 187.996 447.723 188.18C448.203 188.356 448.667 188.612 449.115 188.948C449.571 189.276 449.947 189.708 450.243 190.244C450.539 190.78 450.687 191.46 450.687 192.284C450.687 193.084 450.527 193.8 450.207 194.432C449.895 195.064 449.451 195.596 448.875 196.028C448.307 196.46 447.639 196.788 446.871 197.012C446.111 197.244 445.279 197.36 444.375 197.36ZM452.901 197V179.72H463.701V181.412H454.665V187.388H462.261V189.08H454.665V195.308H463.701V197H452.901Z" fill="white"/>
<path d="M651.179 196V180.412H645.143V178.72H658.979V180.412H652.943V196H651.179ZM660.639 196V178.72H667.311C667.479 178.72 667.667 178.728 667.875 178.744C668.091 178.752 668.307 178.776 668.523 178.816C669.427 178.952 670.191 179.268 670.815 179.764C671.447 180.252 671.923 180.868 672.243 181.612C672.571 182.356 672.735 183.18 672.735 184.084C672.735 185.388 672.391 186.52 671.703 187.48C671.015 188.44 670.031 189.044 668.751 189.292L668.139 189.436H662.403V196H660.639ZM671.103 196L667.695 188.968L669.387 188.32L673.131 196H671.103ZM662.403 187.756H667.263C667.407 187.756 667.575 187.748 667.767 187.732C667.959 187.716 668.147 187.688 668.331 187.648C668.923 187.52 669.407 187.276 669.783 186.916C670.167 186.556 670.451 186.128 670.635 185.632C670.827 185.136 670.923 184.62 670.923 184.084C670.923 183.548 670.827 183.032 670.635 182.536C670.451 182.032 670.167 181.6 669.783 181.24C669.407 180.88 668.923 180.636 668.331 180.508C668.147 180.468 667.959 180.444 667.767 180.436C667.575 180.42 667.407 180.412 667.263 180.412H662.403V187.756ZM675.516 196V178.72H686.316V180.412H677.28V186.388H684.876V188.08H677.28V194.308H686.316V196H675.516ZM687.739 196L693.691 178.72H696.031L701.983 196H700.147L694.495 179.704H695.191L689.575 196H687.739ZM690.391 191.812V190.156H699.319V191.812H690.391ZM707.053 196V180.412H701.017V178.72H714.853V180.412H708.817V196H707.053Z" fill="white"/>
<path d="M93.9845 196V178.72H99.2285C99.4125 178.72 99.7245 178.724 100.165 178.732C100.613 178.74 101.041 178.772 101.449 178.828C102.761 179.012 103.857 179.5 104.737 180.292C105.617 181.084 106.277 182.092 106.717 183.316C107.157 184.54 107.377 185.888 107.377 187.36C107.377 188.832 107.157 190.18 106.717 191.404C106.277 192.628 105.617 193.636 104.737 194.428C103.857 195.22 102.761 195.708 101.449 195.892C101.049 195.94 100.621 195.972 100.165 195.988C99.7085 195.996 99.3965 196 99.2285 196H93.9845ZM95.8085 194.308H99.2285C99.5565 194.308 99.9085 194.3 100.285 194.284C100.669 194.26 100.997 194.22 101.269 194.164C102.277 193.988 103.089 193.58 103.705 192.94C104.329 192.3 104.785 191.5 105.073 190.54C105.361 189.572 105.505 188.512 105.505 187.36C105.505 186.2 105.361 185.136 105.073 184.168C104.785 183.2 104.329 182.4 103.705 181.768C103.081 181.136 102.269 180.732 101.269 180.556C100.997 180.5 100.665 180.464 100.273 180.448C99.8885 180.424 99.5405 180.412 99.2285 180.412H95.8085V194.308ZM109.846 196V178.72H120.646V180.412H111.61V186.388H119.206V188.08H111.61V194.308H120.646V196H109.846ZM127.865 196V180.412H121.829V178.72H135.665V180.412H129.629V196H127.865ZM137.325 196V178.72H148.125V180.412H139.089V186.388H146.685V188.08H139.089V194.308H148.125V196H137.325ZM157.135 196.36C155.415 196.36 153.963 195.98 152.779 195.22C151.595 194.452 150.699 193.392 150.091 192.04C149.483 190.688 149.179 189.128 149.179 187.36C149.179 185.592 149.483 184.032 150.091 182.68C150.699 181.328 151.595 180.272 152.779 179.512C153.963 178.744 155.415 178.36 157.135 178.36C159.143 178.36 160.783 178.876 162.055 179.908C163.327 180.932 164.199 182.308 164.671 184.036L162.871 184.504C162.503 183.136 161.843 182.052 160.891 181.252C159.939 180.452 158.687 180.052 157.135 180.052C155.783 180.052 154.659 180.36 153.763 180.976C152.867 181.592 152.191 182.452 151.735 183.556C151.287 184.652 151.055 185.92 151.039 187.36C151.031 188.8 151.251 190.068 151.699 191.164C152.155 192.26 152.835 193.12 153.739 193.744C154.651 194.36 155.783 194.668 157.135 194.668C158.687 194.668 159.939 194.268 160.891 193.468C161.843 192.66 162.503 191.576 162.871 190.216L164.671 190.684C164.199 192.412 163.327 193.792 162.055 194.824C160.783 195.848 159.143 196.36 157.135 196.36ZM171.651 196V180.412H165.615V178.72H179.451V180.412H173.415V196H171.651Z" fill="white"/>
<path opacity="0.72" d="M322 77L302 65.453V88.547L322 77ZM231.917 79H233.917V75H231.917V79ZM239.75 75H237.75V79H239.75V75ZM247.583 79H249.583V75H247.583V79ZM255.417 75H253.417V79H255.417V75ZM263.25 79H265.25V75H263.25V79ZM271.083 75H269.083V79H271.083V75ZM278.917 79H280.917V75H278.917V79ZM286.75 75H284.75V79H286.75V75ZM294.583 79H296.583V75H294.583V79ZM302.417 75H300.417V79H302.417V75ZM310.25 79H312.25V75H310.25V79ZM318.083 75H316.083V79H318.083V75ZM228 79H231.917V75H228V79ZM239.75 79H247.583V75H239.75V79ZM255.417 79H263.25V75H255.417V79ZM271.083 79H278.917V75H271.083V79ZM286.75 79H294.583V75H286.75V79ZM302.417 79H310.25V75H302.417V79Z" fill="#35D2DA"/>
<path opacity="0.72" d="M591 77L571 65.453V88.547L591 77ZM500.917 79H502.917V75H500.917V79ZM508.75 75H506.75V79H508.75V75ZM516.583 79H518.583V75H516.583V79ZM524.417 75H522.417V79H524.417V75ZM532.25 79H534.25V75H532.25V79ZM540.083 75H538.083V79H540.083V75ZM547.917 79H549.917V75H547.917V79ZM555.75 75H553.75V79H555.75V75ZM563.583 79H565.583V75H563.583V79ZM571.417 75H569.417V79H571.417V75ZM579.25 79H581.25V75H579.25V79ZM587.083 75H585.083V79H587.083V75ZM497 79H500.917V75H497V79ZM508.75 79H516.583V75H508.75V79ZM524.417 79H532.25V75H524.417V79ZM540.083 79H547.917V75H540.083V79ZM555.75 79H563.583V75H555.75V79ZM571.417 79H579.25V75H571.417V79Z" fill="#35D2DA"/>
</svg>
