<svg width="744" height="717" viewBox="0 0 744 717" fill="none" xmlns="http://www.w3.org/2000/svg">
<g clip-path="url(#clip0_27_5252)">
<path d="M45.4551 40.829C45.3258 40.7045 45.3258 40.5788 45.4551 40.4542L46.0392 39.8913C46.1685 39.7667 46.2989 39.7667 46.4282 39.8913L47.0123 40.4542C47.1415 40.5788 47.1415 40.7045 47.0123 40.829L46.4282 41.3919C46.2989 41.5165 46.1685 41.5165 46.0392 41.3919L45.4551 40.829Z" fill="#5BCACD" fill-opacity="0.29"/>
<path d="M49.0077 127.834C48.7527 127.588 48.7527 127.344 49.0077 127.098L50.1511 125.996C50.4062 125.751 50.6595 125.751 50.9146 125.996L52.0597 127.098C52.3147 127.344 52.3147 127.588 52.0597 127.834L50.9146 128.938C50.6595 129.183 50.4062 129.183 50.1511 128.938L49.0077 127.834Z" fill="#5BCACD" fill-opacity="0.29"/>
<path d="M52.3113 223.959C51.8904 223.554 51.8904 223.15 52.3113 222.744L54.2025 220.922C54.6234 220.516 55.0423 220.516 55.4632 220.922L57.3544 222.744C57.7753 223.15 57.7753 223.554 57.3544 223.959L55.4632 225.782C55.0423 226.188 54.6234 226.188 54.2025 225.782L52.3113 223.959Z" fill="#5BCACD" fill-opacity="0.29"/>
<path d="M55.3655 329.208C54.7372 328.602 54.7372 327.997 55.3655 327.391L58.1914 324.668C58.8197 324.063 59.4479 324.063 60.0762 324.668L62.9021 327.391C63.5304 327.997 63.5304 328.602 62.9021 329.208L60.0762 331.931C59.4479 332.537 58.8197 332.537 58.1914 331.931L55.3655 329.208Z" fill="#5BCACD" fill-opacity="0.29"/>
<path d="M58.1709 443.574C57.2939 442.729 57.2939 441.884 58.1709 441.038L62.1186 437.234C62.9956 436.389 63.8725 436.389 64.7495 437.234L68.6972 441.038C69.5742 441.884 69.5742 442.729 68.6972 443.574L64.7495 447.378C63.8725 448.223 62.9956 448.223 62.1186 447.378L58.1709 443.574Z" fill="#5BCACD" fill-opacity="0.29"/>
<path d="M60.7268 567.061C59.5598 565.936 59.5598 564.811 60.7268 563.683L65.98 558.621C67.147 557.496 68.3139 557.496 69.4844 558.621L74.7376 563.683C75.9046 564.808 75.9046 565.933 74.7376 567.061L69.4844 572.123C68.3175 573.248 67.1505 573.248 65.98 572.123L60.7268 567.061Z" fill="#5BCACD" fill-opacity="0.29"/>
<path d="M63.0337 699.667C61.5353 698.223 61.5353 696.775 63.0337 695.331L69.7825 688.828C71.2808 687.384 72.7832 687.384 74.2816 688.828L81.0304 695.331C82.5288 696.775 82.5288 698.223 81.0304 699.667L74.2816 706.171C72.7832 707.615 71.2808 707.615 69.7825 706.171L63.0337 699.667Z" fill="#5BCACD" fill-opacity="0.29"/>
<path d="M126.346 40.2366C126.238 40.1321 126.238 40.0277 126.346 39.9243L126.833 39.4548C126.941 39.3504 127.05 39.3504 127.157 39.4548L127.644 39.9243C127.753 40.0287 127.753 40.1331 127.644 40.2366L127.157 40.706C127.049 40.8105 126.94 40.8105 126.833 40.706L126.346 40.2366Z" fill="#5BCACD" fill-opacity="0.29"/>
<path d="M133.941 125.61C133.729 125.405 133.729 125.201 133.941 124.997L134.895 124.078C135.106 123.874 135.318 123.874 135.53 124.078L136.484 124.997C136.696 125.201 136.696 125.405 136.484 125.61L135.53 126.529C135.318 126.733 135.106 126.733 134.895 126.529L133.941 125.61Z" fill="#5BCACD" fill-opacity="0.29"/>
<path d="M141.33 219.304C140.98 218.967 140.98 218.628 141.33 218.292L142.906 216.773C143.255 216.436 143.607 216.436 143.957 216.773L145.533 218.292C145.882 218.628 145.882 218.967 145.533 219.304L143.957 220.823C143.607 221.16 143.255 221.16 142.906 220.823L141.33 219.304Z" fill="#5BCACD" fill-opacity="0.29"/>
<path d="M148.51 321.323C147.985 320.818 147.985 320.313 148.51 319.81L150.865 317.539C151.389 317.034 151.914 317.034 152.435 317.539L154.791 319.81C155.315 320.315 155.315 320.82 154.791 321.323L152.435 323.593C151.911 324.098 151.387 324.098 150.865 323.593L148.51 321.323Z" fill="#5BCACD" fill-opacity="0.29"/>
<path d="M155.482 431.662C154.751 430.958 154.751 430.253 155.482 429.549L158.771 426.379C159.502 425.674 160.233 425.674 160.964 426.379L164.253 429.549C164.984 430.253 164.984 430.958 164.253 431.662L160.964 434.832C160.233 435.536 159.502 435.536 158.771 434.832L155.482 431.662Z" fill="#5BCACD" fill-opacity="0.29"/>
<path d="M162.246 550.326C161.274 549.39 161.274 548.45 162.246 547.513L166.627 543.291C167.599 542.354 168.574 542.354 169.547 543.291L173.928 547.513C174.9 548.45 174.9 549.39 173.928 550.326L169.547 554.549C168.574 555.485 167.599 555.485 166.627 554.549L162.246 550.326Z" fill="#5BCACD" fill-opacity="0.29"/>
<path d="M168.802 677.31C167.551 676.104 167.551 674.902 168.802 673.696L174.428 668.275C175.679 667.069 176.927 667.069 178.178 668.275L183.804 673.696C185.055 674.902 185.055 676.104 183.804 677.31L178.178 682.732C176.927 683.938 175.679 683.938 174.428 682.732L168.802 677.31Z" fill="#5BCACD" fill-opacity="0.29"/>
<path d="M205.182 39.6481C205.094 39.563 205.094 39.4779 205.182 39.3918L205.58 39.0082C205.669 38.9231 205.757 38.9231 205.846 39.0082L206.244 39.3918C206.333 39.4769 206.333 39.5621 206.244 39.6481L205.846 40.0317C205.758 40.1169 205.67 40.1169 205.58 40.0317L205.182 39.6481Z" fill="#5BCACD" fill-opacity="0.29"/>
<path d="M215.991 123.391C215.817 123.223 215.817 123.057 215.991 122.889L216.772 122.136C216.946 121.968 217.119 121.968 217.293 122.136L218.074 122.889C218.248 123.057 218.248 123.223 218.074 123.391L217.293 124.144C217.119 124.312 216.946 124.312 216.772 124.144L215.991 123.391Z" fill="#5BCACD" fill-opacity="0.29"/>
<path d="M226.629 214.658C226.343 214.381 226.343 214.105 226.629 213.829L227.921 212.585C228.207 212.308 228.494 212.308 228.78 212.585L230.072 213.829C230.358 214.105 230.358 214.381 230.072 214.658L228.78 215.902C228.494 216.178 228.207 216.178 227.921 215.902L226.629 214.658Z" fill="#5BCACD" fill-opacity="0.29"/>
<path d="M237.098 313.452C236.668 313.038 236.668 312.627 237.098 312.213L239.026 310.354C239.456 309.941 239.883 309.941 240.312 310.354L242.241 312.213C242.67 312.627 242.67 313.038 242.241 313.452L240.312 315.311C239.883 315.724 239.456 315.724 239.026 315.311L237.098 313.452Z" fill="#5BCACD" fill-opacity="0.29"/>
<path d="M247.396 419.772C246.798 419.195 246.798 418.619 247.396 418.042L250.089 415.447C250.687 414.87 251.286 414.87 251.884 415.447L254.577 418.042C255.175 418.619 255.175 419.195 254.577 419.772L251.884 422.367C251.286 422.944 250.687 422.944 250.089 422.367L247.396 419.772Z" fill="#5BCACD" fill-opacity="0.29"/>
<path d="M257.527 533.618C256.729 532.848 256.729 532.082 257.527 531.313L261.112 527.858C261.91 527.089 262.706 527.089 263.504 527.858L267.089 531.313C267.887 532.082 267.887 532.848 267.089 533.618L263.504 537.073C262.706 537.842 261.91 537.842 261.112 537.073L257.527 533.618Z" fill="#5BCACD" fill-opacity="0.29"/>
<path d="M267.486 654.986C266.462 654 266.462 653.014 267.486 652.028L272.09 647.59C273.114 646.604 274.137 646.604 275.16 647.59L279.765 652.028C280.788 653.014 280.788 654 279.765 654.986L275.16 659.424C274.137 660.41 273.114 660.41 272.09 659.424L267.486 654.986Z" fill="#5BCACD" fill-opacity="0.29"/>
<path d="M281.963 39.0628C281.892 38.9942 281.892 38.9264 281.963 38.8577L282.282 38.5505C282.353 38.4819 282.423 38.4819 282.494 38.5505L282.813 38.8577C282.884 38.9264 282.884 38.9942 282.813 39.0628L282.494 39.37C282.423 39.4387 282.353 39.4387 282.282 39.37L281.963 39.0628Z" fill="#5BCACD" fill-opacity="0.29"/>
<path d="M295.156 121.178C295.018 121.044 295.018 120.909 295.156 120.776L295.781 120.173C295.92 120.04 296.06 120.04 296.198 120.173L296.823 120.776C296.962 120.909 296.962 121.044 296.823 121.178L296.198 121.78C296.06 121.914 295.92 121.914 295.781 121.78L295.156 121.178Z" fill="#5BCACD" fill-opacity="0.29"/>
<path d="M308.214 210.022C307.984 209.801 307.984 209.579 308.214 209.358L309.247 208.362C309.477 208.14 309.707 208.14 309.937 208.362L310.97 209.358C311.2 209.579 311.2 209.801 310.97 210.022L309.937 211.018C309.707 211.24 309.477 211.24 309.247 211.018L308.214 210.022Z" fill="#5BCACD" fill-opacity="0.29"/>
<path d="M321.135 305.595C320.793 305.263 320.793 304.933 321.135 304.602L322.679 303.114C323.021 302.782 323.365 302.782 323.707 303.114L325.251 304.602C325.593 304.933 325.593 305.263 325.251 305.595L323.707 307.083C323.365 307.414 323.021 307.414 322.679 307.083L321.135 305.595Z" fill="#5BCACD" fill-opacity="0.29"/>
<path d="M333.92 407.898C333.441 407.437 333.441 406.976 333.92 406.512L336.076 404.433C336.555 403.972 337.034 403.972 337.515 404.433L339.672 406.512C340.151 406.973 340.151 407.435 339.672 407.898L337.515 409.977C337.036 410.438 336.558 410.438 336.076 409.977L333.92 407.898Z" fill="#5BCACD" fill-opacity="0.29"/>
<path d="M346.568 516.932C345.93 516.316 345.93 515.701 346.568 515.088L349.44 512.321C350.078 511.706 350.717 511.706 351.353 512.321L354.224 515.088C354.863 515.704 354.863 516.319 354.224 516.932L351.353 519.699C350.714 520.314 350.076 520.314 349.44 519.699L346.568 516.932Z" fill="#5BCACD" fill-opacity="0.29"/>
<path d="M359.084 632.695C358.265 631.906 358.265 631.115 359.084 630.327L362.772 626.772C363.59 625.984 364.411 625.984 365.229 626.772L368.918 630.327C369.736 631.115 369.736 631.906 368.918 632.695L365.229 636.25C364.411 637.038 363.59 637.038 362.772 636.25L359.084 632.695Z" fill="#5BCACD" fill-opacity="0.29"/>
<path d="M356.687 38.4788C356.632 38.4256 356.632 38.3724 356.687 38.3192L356.935 38.0799C356.991 38.0267 357.046 38.0267 357.101 38.0799L357.349 38.3192C357.405 38.3724 357.405 38.4256 357.349 38.4788L357.101 38.7181C357.046 38.7713 356.991 38.7713 356.935 38.7181L356.687 38.4788Z" fill="#5BCACD" fill-opacity="0.29"/>
<path d="M371.436 118.969C371.328 118.865 371.328 118.76 371.436 118.657L371.923 118.187C372.032 118.083 372.14 118.083 372.247 118.187L372.735 118.657C372.843 118.761 372.843 118.866 372.735 118.969L372.247 119.438C372.139 119.543 372.031 119.543 371.923 119.438L371.436 118.969Z" fill="#5BCACD" fill-opacity="0.29"/>
<path d="M386.081 205.394C385.901 205.221 385.901 205.05 386.081 204.877L386.885 204.102C387.064 203.929 387.242 203.929 387.422 204.102L388.226 204.877C388.405 205.05 388.405 205.221 388.226 205.394L387.422 206.169C387.242 206.342 387.064 206.342 386.885 206.169L386.081 205.394Z" fill="#5BCACD" fill-opacity="0.29"/>
<path d="M400.618 297.753C400.352 297.496 400.352 297.238 400.618 296.981L401.82 295.822C402.087 295.566 402.355 295.566 402.621 295.822L403.823 296.981C404.09 297.238 404.09 297.496 403.823 297.753L402.621 298.912C402.355 299.168 402.087 299.168 401.82 298.912L400.618 297.753Z" fill="#5BCACD" fill-opacity="0.29"/>
<path d="M415.05 396.047C414.677 395.688 414.677 395.328 415.05 394.967L416.727 393.35C417.1 392.991 417.473 392.991 417.847 393.35L419.525 394.967C419.898 395.327 419.898 395.686 419.525 396.047L417.847 397.664C417.475 398.023 417.102 398.023 416.727 397.664L415.05 396.047Z" fill="#5BCACD" fill-opacity="0.29"/>
<path d="M429.375 500.274C428.878 499.796 428.878 499.317 429.375 498.838L431.61 496.685C432.106 496.206 432.603 496.206 433.1 496.685L435.335 498.838C435.831 499.317 435.831 499.796 435.335 500.274L433.1 502.428C432.603 502.907 432.106 502.907 431.61 502.428L429.375 500.274Z" fill="#5BCACD" fill-opacity="0.29"/>
<path d="M443.594 610.437C442.955 609.821 442.955 609.206 443.594 608.593L446.466 605.826C447.104 605.21 447.742 605.21 448.378 605.826L451.25 608.593C451.888 609.208 451.888 609.824 451.25 610.437L448.378 613.204C447.74 613.819 447.101 613.819 446.466 613.204L443.594 610.437Z" fill="#5BCACD" fill-opacity="0.29"/>
<path d="M429.356 37.8987C429.315 37.859 429.315 37.8187 429.356 37.779L429.543 37.5991C429.584 37.5594 429.626 37.5594 429.667 37.5991L429.854 37.779C429.895 37.8187 429.895 37.859 429.854 37.8987L429.667 38.0786C429.626 38.1183 429.584 38.1183 429.543 38.0786L429.356 37.8987Z" fill="#5BCACD" fill-opacity="0.29"/>
<path d="M444.833 116.767C444.752 116.689 444.752 116.61 444.833 116.532L445.198 116.18C445.279 116.102 445.361 116.102 445.442 116.18L445.807 116.532C445.888 116.61 445.888 116.689 445.807 116.767L445.442 117.119C445.361 117.197 445.279 117.197 445.198 117.119L444.833 116.767Z" fill="#5BCACD" fill-opacity="0.29"/>
<path d="M460.23 200.775C460.096 200.646 460.096 200.516 460.23 200.387L460.833 199.805C460.967 199.676 461.102 199.676 461.236 199.805L461.84 200.387C461.974 200.516 461.974 200.646 461.84 200.775L461.236 201.357C461.102 201.486 460.967 201.486 460.833 201.357L460.23 200.775Z" fill="#5BCACD" fill-opacity="0.29"/>
<path d="M475.548 289.923C475.348 289.73 475.348 289.536 475.548 289.343L476.451 288.473C476.651 288.28 476.853 288.28 477.053 288.473L477.956 289.343C478.157 289.536 478.157 289.73 477.956 289.923L477.053 290.794C476.853 290.987 476.651 290.987 476.451 290.794L475.548 289.923Z" fill="#5BCACD" fill-opacity="0.29"/>
<path d="M490.786 384.213C490.506 383.943 490.506 383.672 490.786 383.403L492.046 382.188C492.326 381.918 492.608 381.918 492.887 382.188L494.148 383.403C494.428 383.672 494.428 383.943 494.148 384.213L492.887 385.428C492.608 385.698 492.326 385.698 492.046 385.428L490.786 384.213Z" fill="#5BCACD" fill-opacity="0.29"/>
<path d="M505.944 483.642C505.571 483.283 505.571 482.924 505.944 482.563L507.621 480.946C507.994 480.586 508.367 480.586 508.741 480.946L510.419 482.563C510.792 482.922 510.792 483.281 510.419 483.642L508.741 485.259C508.369 485.618 507.996 485.618 507.621 485.259L505.944 483.642Z" fill="#5BCACD" fill-opacity="0.29"/>
<path d="M521.022 588.21C520.543 587.749 520.543 587.288 521.022 586.824L523.178 584.745C523.657 584.284 524.136 584.284 524.617 584.745L526.774 586.824C527.253 587.285 527.253 587.747 526.774 588.21L524.617 590.289C524.138 590.75 523.66 590.75 523.178 590.289L521.022 588.21Z" fill="#5BCACD" fill-opacity="0.29"/>
<path d="M536.02 697.921C535.422 697.345 535.422 696.768 536.02 696.192L538.713 693.596C539.311 693.02 539.91 693.02 540.508 693.596L543.201 696.192C543.799 696.768 543.799 697.345 543.201 697.921L540.508 700.517C539.91 701.094 539.311 701.094 538.713 700.517L536.02 697.921Z" fill="#5BCACD" fill-opacity="0.29"/>
<path d="M499.97 37.321C499.94 37.2923 499.94 37.2636 499.97 37.2354L500.103 37.1065C500.133 37.0778 500.163 37.0778 500.192 37.1065L500.326 37.2354C500.356 37.2641 500.356 37.2928 500.326 37.321L500.192 37.4499C500.162 37.4786 500.133 37.4786 500.103 37.4499L499.97 37.321Z" fill="#5BCACD" fill-opacity="0.29"/>
<path d="M515.345 114.57C515.287 114.514 515.287 114.458 515.345 114.402L515.607 114.149C515.665 114.093 515.723 114.093 515.782 114.149L516.044 114.402C516.102 114.458 516.102 114.514 516.044 114.57L515.782 114.822C515.723 114.879 515.665 114.879 515.607 114.822L515.345 114.57Z" fill="#5BCACD" fill-opacity="0.29"/>
<path d="M530.662 196.166C530.566 196.073 530.566 195.981 530.662 195.888L531.095 195.471C531.192 195.378 531.288 195.378 531.384 195.471L531.817 195.888C531.913 195.981 531.913 196.073 531.817 196.166L531.384 196.583C531.288 196.676 531.192 196.676 531.095 196.583L530.662 196.166Z" fill="#5BCACD" fill-opacity="0.29"/>
<path d="M545.923 282.108C545.78 281.97 545.78 281.831 545.923 281.693L546.57 281.07C546.713 280.932 546.857 280.932 547 281.07L547.647 281.693C547.79 281.831 547.79 281.97 547.647 282.108L547 282.731C546.857 282.869 546.713 282.869 546.57 282.731L545.923 282.108Z" fill="#5BCACD" fill-opacity="0.29"/>
<path d="M561.129 372.398C560.928 372.205 560.928 372.011 561.129 371.818L562.032 370.947C562.232 370.754 562.434 370.754 562.634 370.947L563.537 371.818C563.737 372.011 563.737 372.205 563.537 372.398L562.634 373.268C562.434 373.461 562.232 373.461 562.032 373.268L561.129 372.398Z" fill="#5BCACD" fill-opacity="0.29"/>
<path d="M576.275 467.035C576.009 466.778 576.009 466.52 576.275 466.263L577.477 465.105C577.744 464.848 578.012 464.848 578.278 465.105L579.48 466.263C579.747 466.52 579.747 466.778 579.48 467.035L578.278 468.194C578.012 468.45 577.744 468.45 577.477 468.194L576.275 467.035Z" fill="#5BCACD" fill-opacity="0.29"/>
<path d="M591.364 566.018C591.022 565.688 591.022 565.356 591.364 565.027L592.909 563.539C593.251 563.209 593.595 563.209 593.937 563.539L595.481 565.027C595.823 565.356 595.823 565.688 595.481 566.018L593.937 567.506C593.595 567.835 593.251 567.835 592.909 567.506L591.364 566.018Z" fill="#5BCACD" fill-opacity="0.29"/>
<path d="M606.397 669.349C605.968 668.935 605.968 668.524 606.397 668.11L608.326 666.251C608.755 665.837 609.182 665.837 609.612 666.251L611.54 668.11C611.97 668.524 611.97 668.935 611.54 669.349L609.612 671.208C609.182 671.621 608.755 671.621 608.326 671.208L606.397 669.349Z" fill="#5BCACD" fill-opacity="0.29"/>
<path d="M568.528 36.7467C568.508 36.7277 568.508 36.7086 568.528 36.6891L568.617 36.6032C568.637 36.5841 568.657 36.5841 568.677 36.6032L568.766 36.6891C568.786 36.7082 568.786 36.7272 568.766 36.7467L568.677 36.8327C568.657 36.8518 568.637 36.8518 568.617 36.8327L568.528 36.7467Z" fill="#5BCACD" fill-opacity="0.29"/>
<path d="M582.972 112.379C582.933 112.342 582.933 112.304 582.972 112.267L583.147 112.098C583.186 112.061 583.225 112.061 583.263 112.098L583.439 112.267C583.477 112.304 583.477 112.342 583.439 112.379L583.263 112.548C583.225 112.585 583.186 112.585 583.147 112.548L582.972 112.379Z" fill="#5BCACD" fill-opacity="0.29"/>
<path d="M597.379 191.565C597.314 191.503 597.314 191.441 597.379 191.38L597.668 191.1C597.733 191.038 597.797 191.038 597.861 191.1L598.151 191.38C598.215 191.442 598.215 191.504 598.151 191.565L597.861 191.845C597.797 191.907 597.733 191.907 597.668 191.845L597.379 191.565Z" fill="#5BCACD" fill-opacity="0.29"/>
<path d="M611.746 274.307C611.65 274.214 611.65 274.122 611.746 274.029L612.179 273.612C612.276 273.519 612.372 273.519 612.468 273.612L612.901 274.029C612.997 274.122 612.997 274.214 612.901 274.307L612.468 274.724C612.372 274.817 612.276 274.817 612.179 274.724L611.746 274.307Z" fill="#5BCACD" fill-opacity="0.29"/>
<path d="M626.076 360.603C625.942 360.474 625.942 360.344 626.076 360.215L626.68 359.633C626.814 359.504 626.949 359.504 627.083 359.633L627.687 360.215C627.82 360.344 627.82 360.474 627.687 360.603L627.083 361.185C626.949 361.314 626.814 361.314 626.68 361.185L626.076 360.603Z" fill="#5BCACD" fill-opacity="0.29"/>
<path d="M640.369 450.454C640.19 450.281 640.19 450.109 640.369 449.936L641.173 449.161C641.353 448.989 641.53 448.989 641.71 449.161L642.514 449.936C642.693 450.109 642.693 450.281 642.514 450.454L641.71 451.229C641.53 451.402 641.353 451.402 641.173 451.229L640.369 450.454Z" fill="#5BCACD" fill-opacity="0.29"/>
<path d="M654.622 543.859C654.392 543.637 654.392 543.416 654.622 543.194L655.655 542.198C655.885 541.977 656.115 541.977 656.345 542.198L657.378 543.194C657.608 543.416 657.608 543.637 657.378 543.859L656.345 544.855C656.115 545.076 655.885 545.076 655.655 544.855L654.622 543.859Z" fill="#5BCACD" fill-opacity="0.29"/>
<path d="M668.837 640.817C668.55 640.541 668.55 640.265 668.837 639.989L670.128 638.744C670.415 638.468 670.702 638.468 670.99 638.744L672.281 639.989C672.568 640.265 672.568 640.541 672.281 640.817L670.99 642.062C670.703 642.338 670.417 642.338 670.128 642.062L668.837 640.817Z" fill="#5BCACD" fill-opacity="0.29"/>
<path d="M635.03 36.1748C635.018 36.163 635.018 36.1517 635.03 36.1399L635.084 36.0879C635.096 36.0762 635.108 36.0762 635.12 36.0879L635.174 36.1399C635.186 36.1517 635.186 36.163 635.174 36.1748L635.12 36.2268C635.108 36.2385 635.096 36.2385 635.084 36.2268L635.03 36.1748Z" fill="#5BCACD" fill-opacity="0.29"/>
<path d="M647.715 110.193C647.691 110.171 647.691 110.148 647.715 110.125L647.821 110.023C647.845 110 647.868 110 647.892 110.023L647.998 110.125C648.021 110.148 648.021 110.171 647.998 110.193L647.892 110.296C647.868 110.318 647.845 110.318 647.821 110.296L647.715 110.193Z" fill="#5BCACD" fill-opacity="0.29"/>
<path d="M660.377 186.975C660.338 186.937 660.338 186.899 660.377 186.862L660.552 186.693C660.59 186.656 660.63 186.656 660.668 186.693L660.843 186.862C660.882 186.899 660.882 186.937 660.843 186.975L660.668 187.143C660.63 187.18 660.59 187.18 660.552 187.143L660.377 186.975Z" fill="#5BCACD" fill-opacity="0.29"/>
<path d="M673.016 266.519C672.958 266.463 672.958 266.406 673.016 266.35L673.278 266.098C673.336 266.042 673.394 266.042 673.453 266.098L673.715 266.35C673.773 266.406 673.773 266.463 673.715 266.519L673.453 266.771C673.394 266.827 673.336 266.827 673.278 266.771L673.016 266.519Z" fill="#5BCACD" fill-opacity="0.29"/>
<path d="M685.631 348.826C685.551 348.748 685.551 348.669 685.631 348.591L685.997 348.239C686.078 348.161 686.16 348.161 686.241 348.239L686.606 348.591C686.687 348.669 686.687 348.748 686.606 348.826L686.241 349.178C686.16 349.256 686.078 349.256 685.997 349.178L685.631 348.826Z" fill="#5BCACD" fill-opacity="0.29"/>
<path d="M698.224 433.897C698.115 433.792 698.115 433.688 698.224 433.584L698.711 433.115C698.819 433.011 698.928 433.011 699.035 433.115L699.522 433.584C699.631 433.689 699.631 433.793 699.522 433.897L699.035 434.366C698.927 434.471 698.818 434.471 698.711 434.366L698.224 433.897Z" fill="#5BCACD" fill-opacity="0.29"/>
<path d="M710.794 521.732C710.655 521.598 710.655 521.463 710.794 521.33L711.419 520.727C711.558 520.594 711.697 520.594 711.836 520.727L712.461 521.33C712.6 521.463 712.6 521.598 712.461 521.732L711.836 522.334C711.697 522.468 711.558 522.468 711.419 522.334L710.794 521.732Z" fill="#5BCACD" fill-opacity="0.29"/>
<path d="M723.34 612.328C723.166 612.16 723.166 611.994 723.34 611.826L724.121 611.073C724.295 610.905 724.468 610.905 724.642 611.073L725.424 611.826C725.598 611.994 725.598 612.16 725.424 612.328L724.642 613.081C724.468 613.249 724.295 613.249 724.121 613.081L723.34 612.328Z" fill="#5BCACD" fill-opacity="0.29"/>
<path d="M735.864 705.688C735.653 705.484 735.653 705.28 735.864 705.076L736.818 704.157C737.03 703.952 737.242 703.952 737.454 704.157L738.408 705.076C738.619 705.28 738.619 705.484 738.408 705.688L737.454 706.607C737.242 706.812 737.03 706.812 736.818 706.607L735.864 705.688Z" fill="#5BCACD" fill-opacity="0.29"/>
<path d="M699.477 35.6068C699.471 35.6007 699.471 35.5947 699.477 35.5887L699.505 35.5616C699.511 35.5556 699.517 35.5556 699.523 35.5616L699.551 35.5887C699.557 35.5947 699.557 35.6007 699.551 35.6068L699.523 35.6338C699.517 35.6398 699.511 35.6398 699.505 35.6338L699.477 35.6068Z" fill="#5BCACD" fill-opacity="0.29"/>
<path d="M709.574 108.013C709.561 108.001 709.561 107.99 709.574 107.978L709.628 107.926C709.64 107.915 709.652 107.915 709.664 107.926L709.718 107.978C709.73 107.99 709.73 108.001 709.718 108.013L709.664 108.065C709.652 108.077 709.64 108.077 709.628 108.065L709.574 108.013Z" fill="#5BCACD" fill-opacity="0.29"/>
<path d="M719.658 182.393C719.639 182.374 719.639 182.355 719.658 182.335L719.748 182.249C719.767 182.23 719.787 182.23 719.807 182.249L719.897 182.335C719.916 182.354 719.916 182.373 719.897 182.393L719.807 182.479C719.788 182.498 719.768 182.498 719.748 182.479L719.658 182.393Z" fill="#5BCACD" fill-opacity="0.29"/>
<path d="M729.731 258.744C729.702 258.716 729.702 258.687 729.731 258.659L729.865 258.53C729.895 258.501 729.925 258.501 729.954 258.53L730.088 258.659C730.117 258.687 730.117 258.716 730.088 258.744L729.954 258.873C729.924 258.902 729.894 258.902 729.865 258.873L729.731 258.744Z" fill="#5BCACD" fill-opacity="0.29"/>
<path d="M739.793 337.07C739.752 337.03 739.752 336.99 739.793 336.95L739.98 336.77C740.021 336.73 740.063 336.73 740.104 336.77L740.291 336.95C740.332 336.99 740.332 337.03 740.291 337.07L740.104 337.249C740.063 337.289 740.021 337.289 739.98 337.249L739.793 337.07Z" fill="#5BCACD" fill-opacity="0.29"/>
<path d="M3.85121 0.887627C3.74003 0.780477 3.74003 0.672276 3.85121 0.565126L4.35372 0.0808507C4.46491 -0.0262992 4.57718 -0.0262992 4.68837 0.0808507L5.19088 0.565126C5.30206 0.672276 5.30206 0.780477 5.19088 0.887627L4.68837 1.3719C4.57718 1.47905 4.46491 1.47905 4.35372 1.3719L3.85121 0.887627Z" fill="#5BCACD" fill-opacity="0.29"/>
<path d="M5.27479 85.6012C5.02299 85.3586 5.02299 85.1175 5.27479 84.8748L6.40462 83.786C6.65642 83.5433 6.90659 83.5433 7.15839 83.786L8.28822 84.8748C8.54003 85.1175 8.54003 85.3586 8.28822 85.6012L7.15839 86.6901C6.90659 86.9327 6.65642 86.9327 6.40462 86.6901L5.27479 85.6012Z" fill="#5BCACD" fill-opacity="0.29"/>
<path d="M6.36156 180.899C5.91464 180.468 5.91464 180.037 6.36156 179.609L8.3716 177.672C8.81852 177.241 9.26544 177.241 9.71018 177.672L11.7202 179.609C12.1671 180.039 12.1671 180.47 11.7202 180.899L9.71018 182.836C9.26326 183.267 8.81634 183.267 8.3716 182.836L6.36156 180.899Z" fill="#5BCACD" fill-opacity="0.29"/>
<path d="M7.11551 286.784C6.41788 286.112 6.41788 285.439 7.11551 284.767L10.2548 281.742C10.9525 281.069 11.6501 281.069 12.3477 281.742L15.4871 284.767C16.1847 285.439 16.1847 286.112 15.4871 286.784L12.3477 289.809C11.6501 290.482 10.9525 290.482 10.2548 289.809L7.11551 286.784Z" fill="#5BCACD" fill-opacity="0.29"/>
<path d="M7.53444 403.254C6.53051 402.287 6.53051 401.319 7.53444 400.349L12.0538 395.993C13.0577 395.026 14.0616 395.026 15.0689 395.993L19.5882 400.349C20.5921 401.316 20.5921 402.284 19.5882 403.254L15.0689 407.61C14.0649 408.577 13.061 408.577 12.0538 407.61L7.53444 403.254Z" fill="#5BCACD" fill-opacity="0.29"/>
<path d="M7.6191 530.311C6.25327 528.994 6.25327 527.674 7.6191 526.358L13.773 520.428C15.1388 519.111 16.5084 519.111 17.8743 520.428L24.0281 526.358C25.394 527.674 25.394 528.994 24.0281 530.311L17.8743 536.241C16.5084 537.557 15.1388 537.557 13.773 536.241L7.6191 530.311Z" fill="#5BCACD" fill-opacity="0.29"/>
<path d="M7.36883 667.952C5.58116 666.23 5.58116 664.511 7.36883 662.788L15.4047 655.044C17.1923 653.321 18.9757 653.321 20.7633 655.044L28.7992 662.788C30.5868 664.511 30.5868 666.23 28.7992 667.952L20.7633 675.697C18.9757 677.419 17.1923 677.419 15.4047 675.697L7.36883 667.952Z" fill="#5BCACD" fill-opacity="0.29"/>
<path d="M84.5399 0.801468C84.446 0.710951 84.446 0.620433 84.5399 0.529916L84.9616 0.123552C85.0555 0.0330348 85.1494 0.0330348 85.2434 0.123552L85.665 0.529916C85.759 0.620433 85.759 0.710951 85.665 0.801468L85.2434 1.20783C85.1494 1.29835 85.0555 1.29835 84.9616 1.20783L84.5399 0.801468Z" fill="#5BCACD" fill-opacity="0.29"/>
<path d="M90.9041 84.1385C90.6928 83.9348 90.6928 83.7312 90.9041 83.529L91.8544 82.6132C92.0657 82.4095 92.277 82.4095 92.4869 82.6132L93.4371 83.529C93.6484 83.7326 93.6484 83.9363 93.4371 84.1385L92.4869 85.0543C92.2755 85.2579 92.0642 85.2579 91.8544 85.0543L90.9041 84.1385Z" fill="#5BCACD" fill-opacity="0.29"/>
<path d="M96.9881 177.175C96.6124 176.813 96.6124 176.452 96.9881 176.09L98.6767 174.463C99.0524 174.101 99.4261 174.101 99.8018 174.463L101.491 176.09C101.866 176.452 101.866 176.813 101.491 177.175L99.8018 178.802C99.4261 179.164 99.0524 179.164 98.6767 178.802L96.9881 177.175Z" fill="#5BCACD" fill-opacity="0.29"/>
<path d="M102.789 279.906C102.202 279.34 102.202 278.777 102.789 278.211L105.427 275.669C106.014 275.103 106.599 275.103 107.186 275.669L109.824 278.211C110.411 278.777 110.411 279.34 109.824 279.906L107.186 282.448C106.599 283.014 106.014 283.014 105.427 282.448L102.789 279.906Z" fill="#5BCACD" fill-opacity="0.29"/>
<path d="M108.311 392.337C107.466 391.523 107.466 390.711 108.311 389.896L112.109 386.236C112.955 385.421 113.797 385.421 114.642 386.236L118.44 389.896C119.286 390.711 119.286 391.523 118.44 392.337L114.642 395.997C113.797 396.812 112.955 396.812 112.109 395.997L108.311 392.337Z" fill="#5BCACD" fill-opacity="0.29"/>
<path d="M113.549 514.463C112.399 513.354 112.399 512.248 113.549 511.14L118.718 506.158C119.869 505.049 121.016 505.049 122.166 506.158L127.335 511.14C128.486 512.248 128.486 513.354 127.335 514.463L122.166 519.444C121.016 520.553 119.869 520.553 118.718 519.444L113.549 514.463Z" fill="#5BCACD" fill-opacity="0.29"/>
<path d="M118.505 646.285C117.006 644.841 117.006 643.393 118.505 641.948L125.26 635.439C126.759 633.994 128.262 633.994 129.76 635.439L136.515 641.948C138.014 643.393 138.014 644.841 136.515 646.285L129.76 652.795C128.262 654.239 126.759 654.239 125.26 652.795L118.505 646.285Z" fill="#5BCACD" fill-opacity="0.29"/>
<path d="M163.403 0.717142C163.326 0.642733 163.326 0.567448 163.403 0.493038L163.752 0.156881C163.829 0.0824718 163.907 0.0824718 163.984 0.156881L164.333 0.493038C164.41 0.567448 164.41 0.642733 164.333 0.717142L163.984 1.0533C163.907 1.12771 163.829 1.12771 163.752 1.0533L163.403 0.717142Z" fill="#5BCACD" fill-opacity="0.29"/>
<path d="M173.789 82.6821C173.614 82.514 173.614 82.3459 173.789 82.1778L174.574 81.4215C174.748 81.2534 174.922 81.2534 175.097 81.4215L175.882 82.1778C176.056 82.3459 176.056 82.514 175.882 82.6821L175.097 83.4384C174.922 83.6065 174.748 83.6065 174.574 83.4384L173.789 82.6821Z" fill="#5BCACD" fill-opacity="0.29"/>
<path d="M183.942 173.457C183.631 173.157 183.631 172.86 183.942 172.56L185.337 171.216C185.648 170.916 185.957 170.916 186.267 171.216L187.663 172.56C187.973 172.86 187.973 173.157 187.663 173.457L186.267 174.801C185.957 175.101 185.648 175.101 185.337 174.801L183.942 173.457Z" fill="#5BCACD" fill-opacity="0.29"/>
<path d="M193.863 273.042C193.379 272.576 193.379 272.108 193.863 271.642L196.043 269.541C196.527 269.074 197.013 269.074 197.496 269.541L199.676 271.642C200.16 272.108 200.16 272.576 199.676 273.042L197.496 275.143C197.013 275.609 196.527 275.609 196.043 275.143L193.863 273.042Z" fill="#5BCACD" fill-opacity="0.29"/>
<path d="M203.551 381.437C202.853 380.765 202.853 380.093 203.551 379.42L206.69 376.395C207.388 375.723 208.086 375.723 208.783 376.395L211.923 379.42C212.62 380.093 212.62 380.765 211.923 381.437L208.783 384.463C208.086 385.135 207.388 385.135 206.69 384.463L203.551 381.437Z" fill="#5BCACD" fill-opacity="0.29"/>
<path d="M213.007 498.643C212.056 497.726 212.056 496.813 213.007 495.897L217.28 491.779C218.23 490.863 219.178 490.863 220.128 491.779L224.401 495.897C225.352 496.813 225.352 497.726 224.401 498.643L220.128 502.76C219.178 503.677 218.23 503.677 217.28 502.76L213.007 498.643Z" fill="#5BCACD" fill-opacity="0.29"/>
<path d="M222.23 624.658C220.991 623.464 220.991 622.266 222.23 621.072L227.811 615.694C229.05 614.5 230.293 614.5 231.532 615.694L237.113 621.072C238.352 622.266 238.352 623.464 237.113 624.658L231.532 630.037C230.293 631.231 229.05 631.231 227.811 630.037L222.23 624.658Z" fill="#5BCACD" fill-opacity="0.29"/>
<path d="M240.44 0.635053C240.377 0.574387 240.377 0.513721 240.44 0.453844L240.722 0.181242C240.785 0.120576 240.848 0.120576 240.91 0.181242L241.193 0.453844C241.256 0.514509 241.256 0.575175 241.193 0.635053L240.91 0.907655C240.847 0.968321 240.785 0.968321 240.722 0.907655L240.44 0.635053Z" fill="#5BCACD" fill-opacity="0.29"/>
<path d="M253.927 81.2304C253.786 81.0945 253.786 80.9586 253.927 80.8215L254.563 80.2094C254.704 80.0734 254.845 80.0734 254.987 80.2094L255.622 80.8215C255.763 80.9574 255.763 81.0933 255.622 81.2304L254.987 81.8426C254.846 81.9785 254.705 81.9785 254.563 81.8426L253.927 81.2304Z" fill="#5BCACD" fill-opacity="0.29"/>
<path d="M267.227 169.75C266.975 169.508 266.975 169.266 267.227 169.024L268.357 167.935C268.609 167.692 268.859 167.692 269.111 167.935L270.24 169.024C270.492 169.266 270.492 169.508 270.24 169.75L269.111 170.839C268.859 171.082 268.609 171.082 268.357 170.839L267.227 169.75Z" fill="#5BCACD" fill-opacity="0.29"/>
<path d="M280.337 266.192C279.944 265.814 279.944 265.436 280.337 265.058L282.102 263.356C282.495 262.978 282.887 262.978 283.28 263.356L285.046 265.058C285.438 265.436 285.438 265.814 285.046 266.192L283.28 267.894C282.887 268.272 282.495 268.272 282.102 267.894L280.337 266.192Z" fill="#5BCACD" fill-opacity="0.29"/>
<path d="M293.26 370.56C292.696 370.016 292.696 369.47 293.26 368.927L295.803 366.476C296.367 365.932 296.934 365.932 297.498 366.476L300.041 368.927C300.605 369.47 300.605 370.016 300.041 370.56L297.498 373.011C296.934 373.555 296.367 373.555 295.803 373.011L293.26 370.56Z" fill="#5BCACD" fill-opacity="0.29"/>
<path d="M305.992 482.85C305.222 482.108 305.222 481.366 305.992 480.627L309.454 477.291C310.224 476.549 310.994 476.549 311.761 477.291L315.223 480.627C315.993 481.369 315.993 482.111 315.223 482.85L311.761 486.187C310.991 486.928 310.221 486.928 309.454 486.187L305.992 482.85Z" fill="#5BCACD" fill-opacity="0.29"/>
<path d="M318.539 603.066C317.535 602.099 317.535 601.131 318.539 600.161L323.058 595.805C324.062 594.838 325.066 594.838 326.073 595.805L330.592 600.161C331.596 601.128 331.596 602.096 330.592 603.066L326.073 607.422C325.069 608.389 324.065 608.389 323.058 607.422L318.539 603.066Z" fill="#5BCACD" fill-opacity="0.29"/>
<path d="M315.651 0.556393C315.601 0.508771 315.601 0.460448 315.651 0.412826L315.874 0.197826C315.923 0.150204 315.973 0.150204 316.023 0.197826L316.246 0.412826C316.295 0.460448 316.295 0.508771 316.246 0.556393L316.023 0.771393C315.973 0.819015 315.923 0.819015 315.874 0.771393L315.651 0.556393Z" fill="#5BCACD" fill-opacity="0.29"/>
<path d="M331.32 79.7841C331.209 79.677 331.209 79.5688 331.32 79.4616L331.822 78.9773C331.933 78.8702 332.046 78.8702 332.157 78.9773L332.659 79.4616C332.771 79.5688 332.771 79.677 332.659 79.7841L332.157 80.2684C332.046 80.3755 331.933 80.3755 331.822 80.2684L331.32 79.7841Z" fill="#5BCACD" fill-opacity="0.29"/>
<path d="M346.84 166.05C346.64 165.858 346.64 165.668 346.84 165.476L347.732 164.616C347.931 164.424 348.129 164.424 348.328 164.616L349.22 165.476C349.419 165.668 349.419 165.858 349.22 166.05L348.328 166.91C348.129 167.102 347.931 167.102 347.732 166.91L346.84 166.05Z" fill="#5BCACD" fill-opacity="0.29"/>
<path d="M362.21 259.356C361.899 259.057 361.899 258.759 362.21 258.46L363.605 257.115C363.916 256.816 364.225 256.816 364.535 257.115L365.931 258.46C366.241 258.759 366.241 259.057 365.931 259.356L364.535 260.701C364.225 261 363.916 261 363.605 260.701L362.21 259.356Z" fill="#5BCACD" fill-opacity="0.29"/>
<path d="M377.432 359.701C376.985 359.27 376.985 358.84 377.432 358.411L379.442 356.474C379.889 356.043 380.336 356.043 380.78 356.474L382.791 358.411C383.237 358.842 383.237 359.272 382.791 359.701L380.78 361.638C380.334 362.069 379.887 362.069 379.442 361.638L377.432 359.701Z" fill="#5BCACD" fill-opacity="0.29"/>
<path d="M392.507 467.087C391.9 466.501 391.9 465.916 392.507 465.33L395.242 462.695C395.85 462.109 396.457 462.109 397.065 462.695L399.799 465.33C400.407 465.916 400.407 466.501 399.799 467.087L397.065 469.722C396.457 470.308 395.85 470.308 395.242 469.722L392.507 467.087Z" fill="#5BCACD" fill-opacity="0.29"/>
<path d="M407.432 581.51C406.638 580.745 406.638 579.98 407.432 579.216L411.004 575.773C411.798 575.008 412.591 575.008 413.385 575.773L416.957 579.216C417.751 579.98 417.751 580.745 416.957 581.51L413.385 584.953C412.591 585.717 411.798 585.717 411.004 584.953L407.432 581.51Z" fill="#5BCACD" fill-opacity="0.29"/>
<path d="M422.207 702.972C421.203 702.004 421.203 701.037 422.207 700.066L426.726 695.711C427.73 694.743 428.734 694.743 429.741 695.711L434.261 700.066C435.264 701.034 435.264 702.001 434.261 702.972L429.741 707.327C428.737 708.295 427.733 708.295 426.726 707.327L422.207 702.972Z" fill="#5BCACD" fill-opacity="0.29"/>
<path d="M389.035 0.478861C388.997 0.442094 388.997 0.40594 389.035 0.369172L389.206 0.204333C389.245 0.167566 389.283 0.167566 389.32 0.204333L389.491 0.369172C389.53 0.40594 389.53 0.442094 389.491 0.478861L389.32 0.6437C389.282 0.680467 389.244 0.680467 389.206 0.6437L389.035 0.478861Z" fill="#5BCACD" fill-opacity="0.29"/>
<path d="M405.966 78.3423C405.88 78.2596 405.88 78.1778 405.966 78.0951L406.35 77.7246C406.436 77.6419 406.521 77.6419 406.607 77.7246L406.991 78.0951C407.077 78.1778 407.077 78.2596 406.991 78.3423L406.607 78.7128C406.521 78.7955 406.436 78.7955 406.35 78.7128L405.966 78.3423Z" fill="#5BCACD" fill-opacity="0.29"/>
<path d="M422.781 162.36C422.63 162.214 422.63 162.067 422.781 161.922L423.466 161.262C423.617 161.116 423.77 161.116 423.921 161.262L424.605 161.922C424.756 162.067 424.756 162.214 424.605 162.36L423.921 163.02C423.77 163.166 423.617 163.166 423.466 163.02L422.781 162.36Z" fill="#5BCACD" fill-opacity="0.29"/>
<path d="M439.484 252.534C439.247 252.306 439.247 252.076 439.484 251.848L440.552 250.819C440.789 250.59 441.027 250.59 441.264 250.819L442.332 251.848C442.569 252.076 442.569 252.306 442.332 252.534L441.264 253.564C441.027 253.792 440.789 253.792 440.552 253.564L439.484 252.534Z" fill="#5BCACD" fill-opacity="0.29"/>
<path d="M456.072 348.864C455.731 348.535 455.731 348.206 456.072 347.875L457.61 346.393C457.951 346.064 458.293 346.064 458.636 346.393L460.174 347.875C460.515 348.204 460.515 348.533 460.174 348.864L458.636 350.346C458.295 350.675 457.953 350.675 457.61 350.346L456.072 348.864Z" fill="#5BCACD" fill-opacity="0.29"/>
<path d="M472.547 451.349C472.082 450.901 472.082 450.453 472.547 450.004L474.642 447.986C475.107 447.538 475.572 447.538 476.037 447.986L478.131 450.004C478.596 450.453 478.596 450.901 478.131 451.349L476.037 453.367C475.572 453.816 475.107 453.816 474.642 453.367L472.547 451.349Z" fill="#5BCACD" fill-opacity="0.29"/>
<path d="M488.908 559.99C488.3 559.404 488.3 558.818 488.908 558.233L491.643 555.598C492.25 555.012 492.858 555.012 493.466 555.598L496.2 558.233C496.808 558.818 496.808 559.404 496.2 559.99L493.466 562.625C492.858 563.211 492.25 563.211 491.643 562.625L488.908 559.99Z" fill="#5BCACD" fill-opacity="0.29"/>
<path d="M505.153 674.783C504.383 674.041 504.383 673.299 505.153 672.56L508.615 669.224C509.385 668.482 510.154 668.482 510.921 669.224L514.384 672.56C515.153 673.302 515.153 674.044 514.384 674.783L510.921 678.12C510.152 678.861 509.382 678.861 508.615 678.12L505.153 674.783Z" fill="#5BCACD" fill-opacity="0.29"/>
<path d="M460.594 0.403425C460.567 0.376638 460.567 0.34985 460.594 0.322537L460.72 0.201731C460.747 0.174944 460.775 0.174944 460.804 0.201731L460.929 0.322537C460.957 0.349325 460.957 0.376112 460.929 0.403425L460.804 0.524231C460.776 0.551019 460.748 0.551019 460.72 0.524231L460.594 0.403425Z" fill="#5BCACD" fill-opacity="0.29"/>
<path d="M477.866 76.9051C477.803 76.8444 477.803 76.7837 477.866 76.7239L478.148 76.4513C478.211 76.3906 478.274 76.3906 478.336 76.4513L478.619 76.7239C478.682 76.7845 478.682 76.8452 478.619 76.9051L478.336 77.1777C478.274 77.2383 478.211 77.2383 478.148 77.1777L477.866 76.9051Z" fill="#5BCACD" fill-opacity="0.29"/>
<path d="M495.054 158.68C494.943 158.573 494.943 158.465 495.054 158.358L495.556 157.873C495.668 157.766 495.78 157.766 495.891 157.873L496.394 158.358C496.505 158.465 496.505 158.573 496.394 158.68L495.891 159.164C495.78 159.272 495.668 159.272 495.556 159.164L495.054 158.68Z" fill="#5BCACD" fill-opacity="0.29"/>
<path d="M512.158 245.726C511.983 245.558 511.983 245.39 512.158 245.222L512.942 244.466C513.117 244.298 513.291 244.298 513.466 244.466L514.251 245.222C514.425 245.39 514.425 245.558 514.251 245.726L513.466 246.483C513.291 246.651 513.117 246.651 512.942 246.483L512.158 245.726Z" fill="#5BCACD" fill-opacity="0.29"/>
<path d="M529.179 338.047C528.927 337.804 528.927 337.563 529.179 337.321L530.309 336.232C530.561 335.989 530.811 335.989 531.063 336.232L532.193 337.321C532.444 337.563 532.444 337.804 532.193 338.047L531.063 339.136C530.811 339.379 530.561 339.379 530.309 339.136L529.179 338.047Z" fill="#5BCACD" fill-opacity="0.29"/>
<path d="M546.115 435.639C545.774 435.31 545.774 434.981 546.115 434.65L547.653 433.168C547.994 432.839 548.335 432.839 548.679 433.168L550.216 434.65C550.558 434.979 550.558 435.308 550.216 435.639L548.679 437.121C548.337 437.45 547.996 437.45 547.653 437.121L546.115 435.639Z" fill="#5BCACD" fill-opacity="0.29"/>
<path d="M562.968 538.503C562.521 538.073 562.521 537.642 562.968 537.213L564.978 535.276C565.424 534.845 565.871 534.845 566.316 535.276L568.326 537.213C568.773 537.644 568.773 538.075 568.326 538.503L566.316 540.44C565.869 540.871 565.422 540.871 564.978 540.44L562.968 538.503Z" fill="#5BCACD" fill-opacity="0.29"/>
<path d="M579.738 646.642C579.174 646.098 579.174 645.552 579.738 645.009L582.281 642.558C582.845 642.014 583.412 642.014 583.976 642.558L586.519 645.009C587.084 645.552 587.084 646.098 586.519 646.642L583.976 649.093C583.412 649.637 582.845 649.637 582.281 649.093L579.738 646.642Z" fill="#5BCACD" fill-opacity="0.29"/>
<path d="M530.327 0.330451C530.307 0.311629 530.307 0.293246 530.327 0.274425L530.414 0.190385C530.433 0.171564 530.452 0.171564 530.472 0.190385L530.559 0.274425C530.579 0.293246 530.579 0.311629 530.559 0.330451L530.472 0.41449C530.452 0.433311 530.433 0.433311 530.414 0.41449L530.327 0.330451Z" fill="#5BCACD" fill-opacity="0.29"/>
<path d="M547.02 75.4736C546.976 75.4316 546.976 75.3896 547.02 75.3476L547.216 75.1585C547.26 75.1164 547.303 75.1164 547.347 75.1585L547.543 75.3476C547.587 75.3896 547.587 75.4316 547.543 75.4736L547.347 75.6627C547.303 75.7047 547.26 75.7047 547.216 75.6627L547.02 75.4736Z" fill="#5BCACD" fill-opacity="0.29"/>
<path d="M563.655 155.008C563.577 154.933 563.577 154.858 563.655 154.784L564.003 154.447C564.081 154.373 564.159 154.373 564.236 154.447L564.585 154.784C564.662 154.858 564.662 154.933 564.585 155.008L564.236 155.344C564.159 155.418 564.081 155.418 564.003 155.344L563.655 155.008Z" fill="#5BCACD" fill-opacity="0.29"/>
<path d="M580.231 238.933C580.11 238.816 580.11 238.7 580.231 238.583L580.776 238.058C580.898 237.94 581.018 237.94 581.14 238.058L581.685 238.583C581.806 238.7 581.806 238.816 581.685 238.933L581.14 239.458C581.018 239.575 580.898 239.575 580.776 239.458L580.231 238.933Z" fill="#5BCACD" fill-opacity="0.29"/>
<path d="M596.75 327.249C596.576 327.081 596.576 326.913 596.75 326.745L597.535 325.988C597.709 325.82 597.884 325.82 598.058 325.988L598.843 326.745C599.017 326.913 599.017 327.081 598.843 327.249L598.058 328.005C597.884 328.173 597.709 328.173 597.535 328.005L596.75 327.249Z" fill="#5BCACD" fill-opacity="0.29"/>
<path d="M613.21 419.956C612.974 419.728 612.974 419.498 613.21 419.27L614.279 418.241C614.515 418.012 614.754 418.012 614.991 418.241L616.059 419.27C616.296 419.498 616.296 419.728 616.059 419.956L614.991 420.986C614.754 421.214 614.515 421.214 614.279 420.986L613.21 419.956Z" fill="#5BCACD" fill-opacity="0.29"/>
<path d="M629.613 517.054C629.302 516.755 629.302 516.457 629.613 516.158L631.008 514.813C631.319 514.514 631.628 514.514 631.938 514.813L633.334 516.158C633.644 516.457 633.644 516.755 633.334 517.054L631.938 518.399C631.628 518.698 631.319 518.698 631.008 518.399L629.613 517.054Z" fill="#5BCACD" fill-opacity="0.29"/>
<path d="M645.957 618.544C645.564 618.166 645.564 617.787 645.957 617.409L647.723 615.707C648.115 615.329 648.508 615.329 648.9 615.707L650.666 617.409C651.058 617.787 651.058 618.166 650.666 618.544L648.9 620.246C648.508 620.624 648.115 620.624 647.723 620.246L645.957 618.544Z" fill="#5BCACD" fill-opacity="0.29"/>
<path d="M598.234 0.260192C598.222 0.248286 598.222 0.236381 598.234 0.224475L598.29 0.17055C598.302 0.158645 598.315 0.158645 598.327 0.17055L598.383 0.224475C598.395 0.236381 598.395 0.248286 598.383 0.260192L598.327 0.314117C598.315 0.326023 598.302 0.326023 598.29 0.314117L598.234 0.260192Z" fill="#5BCACD" fill-opacity="0.29"/>
<path d="M613.428 74.047C613.4 74.0202 613.4 73.9934 613.428 73.9661L613.553 73.8453C613.581 73.8185 613.609 73.8185 613.637 73.8453L613.763 73.9661C613.791 73.9929 613.791 74.0197 613.763 74.047L613.637 74.1678C613.61 74.1946 613.582 74.1946 613.553 74.1678L613.428 74.047Z" fill="#5BCACD" fill-opacity="0.29"/>
<path d="M628.586 151.345C628.536 151.297 628.536 151.249 628.586 151.201L628.809 150.986C628.858 150.939 628.909 150.939 628.958 150.986L629.181 151.201C629.23 151.249 629.23 151.297 629.181 151.345L628.958 151.56C628.909 151.608 628.858 151.608 628.809 151.56L628.586 151.345Z" fill="#5BCACD" fill-opacity="0.29"/>
<path d="M643.705 232.153C643.628 232.079 643.628 232.003 643.705 231.929L644.054 231.593C644.131 231.519 644.21 231.519 644.287 231.593L644.636 231.929C644.713 232.003 644.713 232.079 644.636 232.153L644.287 232.489C644.21 232.564 644.131 232.564 644.054 232.489L643.705 232.153Z" fill="#5BCACD" fill-opacity="0.29"/>
<path d="M658.788 316.472C658.677 316.365 658.677 316.257 658.788 316.15L659.291 315.665C659.402 315.558 659.514 315.558 659.626 315.665L660.128 316.15C660.239 316.257 660.239 316.365 660.128 316.472L659.626 316.956C659.514 317.064 659.402 317.064 659.291 316.956L658.788 316.472Z" fill="#5BCACD" fill-opacity="0.29"/>
<path d="M673.833 404.301C673.682 404.155 673.682 404.008 673.833 403.862L674.517 403.203C674.669 403.057 674.821 403.057 674.973 403.203L675.657 403.862C675.808 404.008 675.808 404.155 675.657 404.301L674.973 404.961C674.821 405.106 674.669 405.106 674.517 404.961L673.833 404.301Z" fill="#5BCACD" fill-opacity="0.29"/>
<path d="M688.842 495.642C688.643 495.45 688.643 495.259 688.842 495.067L689.735 494.207C689.934 494.016 690.131 494.016 690.33 494.207L691.223 495.067C691.422 495.259 691.422 495.45 691.223 495.642L690.33 496.502C690.131 496.694 689.934 496.694 689.735 496.502L688.842 495.642Z" fill="#5BCACD" fill-opacity="0.29"/>
<path d="M703.814 590.493C703.562 590.25 703.562 590.009 703.814 589.766L704.944 588.678C705.195 588.435 705.446 588.435 705.697 588.678L706.827 589.766C707.079 590.009 707.079 590.25 706.827 590.493L705.697 591.582C705.446 591.824 705.195 591.824 704.944 591.582L703.814 590.493Z" fill="#5BCACD" fill-opacity="0.29"/>
<path d="M718.747 688.853C718.436 688.554 718.436 688.256 718.747 687.957L720.142 686.612C720.453 686.313 720.761 686.313 721.072 686.612L722.467 687.957C722.778 688.256 722.778 688.554 722.467 688.853L721.072 690.198C720.761 690.497 720.453 690.497 720.142 690.198L718.747 688.853Z" fill="#5BCACD" fill-opacity="0.29"/>
<path d="M664.314 0.192317C664.307 0.185423 664.307 0.178793 664.314 0.171898L664.346 0.141402C664.353 0.134507 664.36 0.134507 664.367 0.141402L664.398 0.171898C664.405 0.178793 664.405 0.185423 664.398 0.192317L664.367 0.222814C664.36 0.229709 664.353 0.229709 664.346 0.222814L664.314 0.192317Z" fill="#5BCACD" fill-opacity="0.29"/>
<path d="M677.09 72.6257C677.075 72.6107 677.075 72.5953 677.09 72.5804L677.161 72.5122C677.177 72.4972 677.192 72.4972 677.208 72.5122L677.279 72.5804C677.294 72.5953 677.294 72.6107 677.279 72.6257L677.208 72.6938C677.192 72.7088 677.177 72.7088 677.161 72.6938L677.09 72.6257Z" fill="#5BCACD" fill-opacity="0.29"/>
<path d="M689.845 147.691C689.817 147.664 689.817 147.637 689.845 147.61L689.97 147.489C689.998 147.463 690.026 147.463 690.054 147.489L690.18 147.61C690.208 147.637 690.208 147.664 690.18 147.691L690.054 147.812C690.027 147.839 689.999 147.839 689.97 147.812L689.845 147.691Z" fill="#5BCACD" fill-opacity="0.29"/>
<path d="M702.579 225.387C702.535 225.345 702.535 225.303 702.579 225.261L702.775 225.072C702.819 225.03 702.862 225.03 702.906 225.072L703.102 225.261C703.146 225.303 703.146 225.345 703.102 225.387L702.906 225.576C702.862 225.618 702.819 225.618 702.775 225.576L702.579 225.387Z" fill="#5BCACD" fill-opacity="0.29"/>
<path d="M715.292 305.715C715.229 305.654 715.229 305.593 715.292 305.533L715.575 305.261C715.638 305.2 715.701 305.2 715.763 305.261L716.046 305.533C716.109 305.594 716.109 305.655 716.046 305.715L715.763 305.987C715.7 306.048 715.637 306.048 715.575 305.987L715.292 305.715Z" fill="#5BCACD" fill-opacity="0.29"/>
<path d="M727.984 388.674C727.898 388.592 727.898 388.51 727.984 388.427L728.369 388.057C728.455 387.974 728.539 387.974 728.625 388.057L729.01 388.427C729.095 388.51 729.095 388.592 729.01 388.674L728.625 389.045C728.539 389.128 728.455 389.128 728.369 389.045L727.984 388.674Z" fill="#5BCACD" fill-opacity="0.29"/>
<path d="M740.656 474.265C740.544 474.157 740.544 474.049 740.656 473.942L741.158 473.458C741.269 473.351 741.382 473.351 741.493 473.458L741.995 473.942C742.107 474.049 742.107 474.157 741.995 474.265L741.493 474.749C741.382 474.856 741.269 474.856 741.158 474.749L740.656 474.265Z" fill="#5BCACD" fill-opacity="0.29"/>
<path d="M728.569 0.126507C728.566 0.123436 728.566 0.120364 728.569 0.117292L728.583 0.103378C728.586 0.100306 728.59 0.100306 728.593 0.103378L728.607 0.117292C728.61 0.120364 728.61 0.123436 728.607 0.126507L728.593 0.140421C728.59 0.143493 728.586 0.143493 728.583 0.140421L728.569 0.126507Z" fill="#5BCACD" fill-opacity="0.29"/>
<path d="M738.006 71.2099C737.999 71.203 737.999 71.1964 738.006 71.1895L738.038 71.159C738.045 71.1521 738.052 71.1521 738.059 71.159L738.09 71.1895C738.097 71.1964 738.097 71.203 738.09 71.2099L738.059 71.2404C738.052 71.2473 738.045 71.2473 738.038 71.2404L738.006 71.2099Z" fill="#5BCACD" fill-opacity="0.29"/>
<path d="M734.739 689.692C734.015 688.994 734.015 688.29 734.739 687.592L738.011 684.439C738.735 683.742 739.466 683.742 740.189 684.439L743.461 687.592C744.185 688.29 744.185 688.994 743.461 689.692L740.189 692.844C739.466 693.542 738.735 693.542 738.011 692.844L734.739 689.692Z" fill="#5BCACD" fill-opacity="0.29"/>
</g>
<defs>
<clipPath id="clip0_27_5252">
<rect width="744" height="717" fill="white"/>
</clipPath>
</defs>
</svg>
