<?xml version="1.0" encoding="UTF-8" standalone="no"?>
<!DOCTYPE svg PUBLIC "-//W3C//DTD SVG 1.1//EN" "http://www.w3.org/Graphics/SVG/1.1/DTD/svg11.dtd">
<!-- Created with Vectornator (http://vectornator.io/) -->
<svg height="100%" stroke-miterlimit="10" style="fill-rule:nonzero;clip-rule:evenodd;stroke-linecap:round;stroke-linejoin:round;" version="1.1" viewBox="0 0 300 50" width="100%" xml:space="preserve" xmlns="http://www.w3.org/2000/svg" xmlns:vectornator="http://vectornator.io" xmlns:xlink="http://www.w3.org/1999/xlink">
<defs>
<clipPath id="TextBounds">
<rect height="75.0299" width="402.196" x="-0.227149" y="0.751039"/>
</clipPath>
<clipPath id="TextBounds_2">
<rect height="70.4762" width="311.577" x="107.883" y="0.857472"/>
</clipPath>
</defs>
<g id="Layer-1" vectornator:layerName="Layer 1">
<g fill="#8a4f7d" fill-opacity="0.995671" opacity="1" stroke="none">
<path clip-path="url(#TextBounds)" d="M15.8178 37.751L13.3041 37.751L4.21621 14.419L2.81973 14.419C2.4903 14.419 2.25397 14.3868 2.11074 14.3223C1.96751 14.2579 1.84935 14.1505 1.75625 14.0001C1.66315 13.8497 1.6166 13.6885 1.6166 13.5167C1.6166 13.3448 1.66315 13.1837 1.75625 13.0333C1.84935 12.8829 1.96751 12.7755 2.11074 12.711C2.25397 12.6465 2.4903 12.6143 2.81973 12.6143L9.54434 12.6143C9.88809 12.6143 10.128 12.6465 10.2641 12.711C10.4001 12.7755 10.5147 12.8829 10.6078 13.0333C10.7009 13.1837 10.7475 13.3448 10.7475 13.5167C10.7475 13.6885 10.6973 13.8497 10.5971 14.0001C10.4968 14.1505 10.3786 14.2579 10.2426 14.3223C10.1065 14.3868 9.87376 14.419 9.54434 14.419L6.08535 14.419L14.4643 35.9464L14.5932 35.9464L22.8646 14.419L19.4271 14.419C19.0834 14.419 18.8399 14.3868 18.6967 14.3223C18.5534 14.2579 18.4353 14.1505 18.3422 14.0001C18.2491 13.8497 18.2025 13.6885 18.2025 13.5167C18.2025 13.3448 18.2527 13.1837 18.3529 13.0333C18.4532 12.8829 18.5714 12.7755 18.7074 12.711C18.8435 12.6465 19.0834 12.6143 19.4271 12.6143L26.1303 12.6143C26.474 12.6143 26.7175 12.6465 26.8607 12.711C27.004 12.7755 27.1221 12.8829 27.2152 13.0333C27.3083 13.1837 27.3549 13.3448 27.3549 13.5167C27.3549 13.6885 27.3048 13.8497 27.2045 14.0001C27.1042 14.1505 26.9861 14.2579 26.85 14.3223C26.7139 14.3868 26.474 14.419 26.1303 14.419L24.7553 14.419L15.8178 37.751Z"/>
<path clip-path="url(#TextBounds)" d="M50.6439 28.878L32.2533 28.878C32.5684 31.2126 33.546 33.0925 35.1859 34.5176C36.8259 35.9428 38.8562 36.6553 41.2768 36.6553C42.6231 36.6553 44.0339 36.4333 45.5092 35.9893C46.9844 35.5453 48.1876 34.9581 49.1186 34.2276C49.3907 34.0128 49.627 33.9053 49.8275 33.9053C50.0567 33.9053 50.2572 33.9949 50.4291 34.1739C50.601 34.3529 50.6869 34.5642 50.6869 34.8077C50.6869 35.0512 50.5723 35.2875 50.3432 35.5167C49.6557 36.2328 48.4346 36.9024 46.6801 37.5255C44.9255 38.1485 43.1244 38.46 41.2768 38.46C38.183 38.46 35.6013 37.4467 33.5316 35.42C31.462 33.3933 30.4271 30.9405 30.4271 28.0616C30.4271 25.4405 31.3975 23.1918 33.3383 21.3155C35.279 19.4392 37.6817 18.501 40.5463 18.501C43.4968 18.501 45.9245 19.4643 47.8295 21.3907C49.7344 23.3171 50.6726 25.8129 50.6439 28.878ZM48.8178 27.0518C48.4597 25.0609 47.518 23.4424 45.9926 22.1964C44.4672 20.9503 42.6518 20.3272 40.5463 20.3272C38.4408 20.3272 36.629 20.9431 35.1107 22.1749C33.5925 23.4066 32.6472 25.0323 32.2748 27.0518L48.8178 27.0518Z"/>
<path clip-path="url(#TextBounds)" d="M65.1244 19.1456L65.1244 23.7003C67.4734 21.5805 69.2315 20.2162 70.3988 19.6075C71.5661 18.9988 72.6439 18.6944 73.6322 18.6944C74.7064 18.6944 75.7055 19.0561 76.6293 19.7794C77.5531 20.5027 78.015 21.0505 78.015 21.4229C78.015 21.695 77.9255 21.9206 77.7465 22.0997C77.5674 22.2787 77.3419 22.3682 77.0697 22.3682C76.9265 22.3682 76.8048 22.3432 76.7045 22.293C76.6042 22.2429 76.418 22.0818 76.1459 21.8096C75.6446 21.3083 75.2077 20.9646 74.8354 20.7784C74.463 20.5922 74.0977 20.4991 73.7396 20.4991C72.9519 20.4991 72.003 20.8142 70.893 21.4444C69.7829 22.0746 67.8601 23.6143 65.1244 26.0635L65.1244 35.9464L73.1166 35.9464C73.5606 35.9464 73.8757 36.0287 74.0619 36.1934C74.2481 36.3581 74.3412 36.5766 74.3412 36.8487C74.3412 37.1065 74.2481 37.3214 74.0619 37.4932C73.8757 37.6651 73.5606 37.751 73.1166 37.751L58.9584 37.751C58.5287 37.751 58.2208 37.6687 58.0346 37.504C57.8484 37.3393 57.7553 37.128 57.7553 36.8702C57.7553 36.6267 57.8448 36.4226 58.0238 36.2579C58.2029 36.0932 58.5144 36.0108 58.9584 36.0108L63.3197 36.0108L63.3197 20.9717L59.9896 20.9717C59.56 20.9717 59.252 20.8858 59.0658 20.7139C58.8796 20.5421 58.7865 20.32 58.7865 20.0479C58.7865 19.7901 58.876 19.5753 59.0551 19.4034C59.2341 19.2315 59.5456 19.1456 59.9896 19.1456L65.1244 19.1456Z"/>
<path clip-path="url(#TextBounds)" d="M98.8764 37.751L98.8764 35.1514C96.2553 37.3572 93.4551 38.46 90.476 38.46C88.3132 38.46 86.6231 37.9122 85.4057 36.8165C84.1882 35.7208 83.5795 34.378 83.5795 32.7881C83.5795 31.0408 84.3816 29.5154 85.9857 28.212C87.5899 26.9086 89.9317 26.2569 93.0111 26.2569C93.8419 26.2569 94.7442 26.3106 95.7182 26.418C96.6921 26.5255 97.7449 26.6937 98.8764 26.9229L98.8764 24.001C98.8764 23.0128 98.418 22.1534 97.5014 21.4229C96.5847 20.6924 95.2097 20.3272 93.3764 20.3272C91.9727 20.3272 90.0033 20.7354 87.4682 21.5518C87.0098 21.695 86.7162 21.7667 86.5873 21.7667C86.3581 21.7667 86.1612 21.6807 85.9965 21.5089C85.8318 21.337 85.7494 21.1221 85.7494 20.8643C85.7494 20.6208 85.821 20.4275 85.9643 20.2842C86.1648 20.0694 86.974 19.7758 88.392 19.4034C90.6264 18.8018 92.3165 18.501 93.4623 18.501C95.7396 18.501 97.5157 19.0632 98.7904 20.1876C100.065 21.3119 100.703 22.5831 100.703 24.001L100.703 35.9464L103.109 35.9464C103.553 35.9464 103.868 36.0287 104.054 36.1934C104.24 36.3581 104.333 36.5766 104.333 36.8487C104.333 37.1065 104.24 37.3214 104.054 37.4932C103.868 37.6651 103.553 37.751 103.109 37.751L98.8764 37.751ZM98.8764 28.7706C98.0313 28.5271 97.1361 28.348 96.1908 28.2335C95.2455 28.1189 94.2501 28.0616 93.2045 28.0616C90.5834 28.0616 88.5352 28.6273 87.06 29.7589C85.9428 30.6039 85.3842 31.6137 85.3842 32.7881C85.3842 33.8767 85.8103 34.7934 86.6625 35.5381C87.5147 36.2829 88.7572 36.6553 90.39 36.6553C91.9512 36.6553 93.4014 36.3438 94.7406 35.7208C96.0798 35.0977 97.4584 34.1059 98.8764 32.7452L98.8764 28.7706Z"/>
</g>
<g fill="#88a096" fill-opacity="0.995671" opacity="1" stroke="none">
<path clip-path="url(#TextBounds_2)" d="M130.523 15.1915L130.523 13.9239C130.523 13.4942 130.606 13.1862 130.77 13.0001C130.935 12.8139 131.154 12.7208 131.426 12.7208C131.698 12.7208 131.916 12.8139 132.081 13.0001C132.246 13.1862 132.328 13.4942 132.328 13.9239L132.328 18.9297C132.328 19.3737 132.246 19.6889 132.081 19.8751C131.916 20.0612 131.698 20.1543 131.426 20.1543C131.182 20.1543 130.978 20.0684 130.813 19.8965C130.649 19.7247 130.552 19.4454 130.523 19.0586C130.452 17.8555 129.8 16.7885 128.568 15.8575C126.907 14.5827 125.016 13.9454 122.896 13.9454C121.507 13.9454 120.197 14.2533 118.965 14.8692C118.048 15.3132 117.318 15.8575 116.773 16.502C115.828 17.6192 115.076 18.8581 114.518 20.2188C114.117 21.2214 113.916 22.3529 113.916 23.6133L113.916 26.7715C113.916 29.4642 114.89 31.8025 116.838 33.7862C118.786 35.7699 121.049 36.7618 123.627 36.7618C125.174 36.7618 126.56 36.4252 127.784 35.752C129.009 35.0788 130.194 34.0619 131.34 32.7012C131.583 32.4004 131.855 32.2501 132.156 32.2501C132.414 32.2501 132.622 32.3288 132.779 32.4864C132.937 32.6439 133.016 32.8445 133.016 33.0879C133.016 33.4174 132.708 33.9187 132.092 34.5918C130.917 35.9096 129.596 36.9014 128.128 37.5674C126.66 38.2334 125.174 38.5665 123.67 38.5665C122.367 38.5665 121.042 38.3158 119.695 37.8145C118.664 37.4278 117.812 36.9766 117.139 36.461C116.465 35.9454 115.638 35.0752 114.657 33.8506C113.676 32.626 113.006 31.4945 112.648 30.4561C112.29 29.4177 112.111 28.2754 112.111 27.0293L112.111 23.3555C112.111 21.5795 112.588 19.764 113.54 17.9092C114.493 16.0544 115.796 14.6293 117.45 13.6338C119.104 12.6384 120.898 12.1407 122.832 12.1407C125.811 12.1407 128.375 13.1576 130.523 15.1915Z"/>
<path clip-path="url(#TextBounds_2)" d="M159.076 28.5977C159.076 31.3477 158.091 33.6967 156.122 35.6446C154.153 37.5925 151.779 38.5665 149 38.5665C146.193 38.5665 143.808 37.5889 141.846 35.6338C139.883 33.6788 138.902 31.3334 138.902 28.5977C138.902 25.8477 139.883 23.4952 141.846 21.5401C143.808 19.585 146.193 18.6075 149 18.6075C151.779 18.6075 154.153 19.5814 156.122 21.5293C158.091 23.4773 159.076 25.8334 159.076 28.5977ZM157.25 28.5977C157.25 26.3347 156.444 24.4083 154.833 22.8184C153.222 21.2286 151.27 20.4336 148.979 20.4336C146.687 20.4336 144.735 21.2321 143.124 22.8292C141.513 24.4262 140.707 26.349 140.707 28.5977C140.707 30.8321 141.513 32.7514 143.124 34.3555C144.735 35.9597 146.687 36.7618 148.979 36.7618C151.27 36.7618 153.222 35.9633 154.833 34.3663C156.444 32.7693 157.25 30.8464 157.25 28.5977Z"/>
<path clip-path="url(#TextBounds_2)" d="M169.561 19.252L169.561 21.9805C170.821 20.7058 171.96 19.8249 172.977 19.3379C173.993 18.851 175.139 18.6075 176.414 18.6075C177.789 18.6075 179.042 18.9011 180.174 19.4883C180.976 19.918 181.703 20.6306 182.354 21.626C183.006 22.6215 183.332 23.642 183.332 24.6876L183.332 36.0528L184.857 36.0528C185.287 36.0528 185.595 36.1351 185.781 36.2999C185.967 36.4646 186.061 36.683 186.061 36.9551C186.061 37.2129 185.967 37.4278 185.781 37.5997C185.595 37.7715 185.287 37.8575 184.857 37.8575L180.023 37.8575C179.579 37.8575 179.264 37.7715 179.078 37.5997C178.892 37.4278 178.799 37.2129 178.799 36.9551C178.799 36.683 178.892 36.4646 179.078 36.2999C179.264 36.1351 179.579 36.0528 180.023 36.0528L181.527 36.0528L181.527 24.9883C181.527 23.7136 181.062 22.6358 180.131 21.7549C179.2 20.8741 177.954 20.4336 176.393 20.4336C175.204 20.4336 174.173 20.6736 173.299 21.1534C172.425 21.6332 171.179 22.8256 169.561 24.7305L169.561 36.0528L171.602 36.0528C172.031 36.0528 172.339 36.1351 172.525 36.2999C172.712 36.4646 172.805 36.683 172.805 36.9551C172.805 37.2129 172.712 37.4278 172.525 37.5997C172.339 37.7715 172.031 37.8575 171.602 37.8575L165.715 37.8575C165.285 37.8575 164.977 37.7715 164.791 37.5997C164.605 37.4278 164.512 37.2129 164.512 36.9551C164.512 36.683 164.605 36.4646 164.791 36.2999C164.977 36.1351 165.285 36.0528 165.715 36.0528L167.756 36.0528L167.756 21.0782L166.23 21.0782C165.801 21.0782 165.493 20.9922 165.307 20.8204C165.12 20.6485 165.027 20.4265 165.027 20.1543C165.027 19.8965 165.12 19.6817 165.307 19.5098C165.493 19.3379 165.801 19.252 166.23 19.252L169.561 19.252Z"/>
<path clip-path="url(#TextBounds_2)" d="M195.965 19.252L195.965 21.9805C197.225 20.7058 198.364 19.8249 199.381 19.3379C200.398 18.851 201.544 18.6075 202.818 18.6075C204.193 18.6075 205.447 18.9011 206.578 19.4883C207.38 19.918 208.107 20.6306 208.759 21.626C209.41 22.6215 209.736 23.642 209.736 24.6876L209.736 36.0528L211.262 36.0528C211.691 36.0528 211.999 36.1351 212.186 36.2999C212.372 36.4646 212.465 36.683 212.465 36.9551C212.465 37.2129 212.372 37.4278 212.186 37.5997C211.999 37.7715 211.691 37.8575 211.262 37.8575L206.428 37.8575C205.984 37.8575 205.669 37.7715 205.482 37.5997C205.296 37.4278 205.203 37.2129 205.203 36.9551C205.203 36.683 205.296 36.4646 205.482 36.2999C205.669 36.1351 205.984 36.0528 206.428 36.0528L207.932 36.0528L207.932 24.9883C207.932 23.7136 207.466 22.6358 206.535 21.7549C205.604 20.8741 204.358 20.4336 202.797 20.4336C201.608 20.4336 200.577 20.6736 199.703 21.1534C198.829 21.6332 197.583 22.8256 195.965 24.7305L195.965 36.0528L198.006 36.0528C198.436 36.0528 198.743 36.1351 198.93 36.2999C199.116 36.4646 199.209 36.683 199.209 36.9551C199.209 37.2129 199.116 37.4278 198.93 37.5997C198.743 37.7715 198.436 37.8575 198.006 37.8575L192.119 37.8575C191.689 37.8575 191.381 37.7715 191.195 37.5997C191.009 37.4278 190.916 37.2129 190.916 36.9551C190.916 36.683 191.009 36.4646 191.195 36.2999C191.381 36.1351 191.689 36.0528 192.119 36.0528L194.16 36.0528L194.16 21.0782L192.635 21.0782C192.205 21.0782 191.897 20.9922 191.711 20.8204C191.525 20.6485 191.432 20.4265 191.432 20.1543C191.432 19.8965 191.525 19.6817 191.711 19.5098C191.897 19.3379 192.205 19.252 192.635 19.252L195.965 19.252Z"/>
<path clip-path="url(#TextBounds_2)" d="M237.967 28.9844L219.576 28.9844C219.891 31.3191 220.869 33.1989 222.509 34.6241C224.149 36.0492 226.179 36.7618 228.6 36.7618C229.946 36.7618 231.357 36.5398 232.832 36.0958C234.307 35.6517 235.51 35.0645 236.441 34.334C236.714 34.1192 236.95 34.0118 237.15 34.0118C237.38 34.0118 237.58 34.1013 237.752 34.2803C237.924 34.4594 238.01 34.6706 238.01 34.9141C238.01 35.1576 237.895 35.3939 237.666 35.6231C236.979 36.3392 235.757 37.0088 234.003 37.6319C232.248 38.2549 230.447 38.5665 228.6 38.5665C225.506 38.5665 222.924 37.5531 220.854 35.5264C218.785 33.4997 217.75 31.0469 217.75 28.168C217.75 25.5469 218.72 23.2982 220.661 21.4219C222.602 19.5456 225.005 18.6075 227.869 18.6075C230.82 18.6075 233.247 19.5707 235.152 21.4971C237.057 23.4236 237.995 25.9193 237.967 28.9844ZM236.141 27.1583C235.783 25.1674 234.841 23.5489 233.315 22.3028C231.79 21.0567 229.975 20.4336 227.869 20.4336C225.764 20.4336 223.952 21.0495 222.434 22.2813C220.915 23.5131 219.97 25.1387 219.598 27.1583L236.141 27.1583Z"/>
<path clip-path="url(#TextBounds_2)" d="M262.137 21.0782L262.137 20.4766C262.137 20.0326 262.223 19.7175 262.395 19.5313C262.566 19.3451 262.781 19.252 263.039 19.252C263.311 19.252 263.533 19.3451 263.705 19.5313C263.877 19.7175 263.963 20.0326 263.963 20.4766L263.963 24.5586C263.949 25.0027 263.859 25.3178 263.694 25.504C263.53 25.6902 263.311 25.7833 263.039 25.7833C262.796 25.7833 262.591 25.7009 262.427 25.5362C262.262 25.3715 262.165 25.0958 262.137 24.709C262.051 23.6921 261.381 22.7253 260.128 21.8086C258.875 20.892 257.188 20.4336 255.068 20.4336C252.39 20.4336 250.356 21.2715 248.967 22.9473C247.577 24.6231 246.883 26.5424 246.883 28.7051C246.883 31.0398 247.649 32.9662 249.182 34.4844C250.714 36.0027 252.698 36.7618 255.133 36.7618C256.536 36.7618 257.965 36.504 259.419 35.9883C260.873 35.4727 262.187 34.642 263.361 33.4961C263.662 33.2097 263.927 33.0665 264.156 33.0665C264.4 33.0665 264.604 33.1488 264.769 33.3135C264.933 33.4782 265.016 33.6823 265.016 33.9258C265.016 34.5417 264.292 35.3223 262.846 36.2676C260.511 37.8002 257.911 38.5665 255.047 38.5665C252.139 38.5665 249.751 37.639 247.882 35.7842C246.013 33.9294 245.078 31.5769 245.078 28.7266C245.078 25.8191 246.034 23.4056 247.946 21.4864C249.858 19.5671 252.268 18.6075 255.176 18.6075C257.94 18.6075 260.26 19.431 262.137 21.0782Z"/>
<path clip-path="url(#TextBounds_2)" d="M277.305 19.252L287.102 19.252C287.531 19.252 287.839 19.3379 288.025 19.5098C288.212 19.6817 288.305 19.9037 288.305 20.1758C288.305 20.4336 288.212 20.6485 288.025 20.8204C287.839 20.9922 287.531 21.0782 287.102 21.0782L277.305 21.0782L277.305 33.0879C277.305 34.1335 277.724 35.0072 278.562 35.709C279.399 36.4109 280.628 36.7618 282.246 36.7618C283.464 36.7618 284.781 36.5792 286.199 36.2139C287.617 35.8487 288.72 35.4369 289.508 34.9786C289.794 34.7924 290.031 34.6993 290.217 34.6993C290.446 34.6993 290.646 34.7888 290.818 34.9678C290.99 35.1469 291.076 35.3581 291.076 35.6016C291.076 35.8165 290.983 36.017 290.797 36.2032C290.339 36.6758 289.225 37.1879 287.456 37.7393C285.687 38.2907 283.993 38.5665 282.375 38.5665C280.27 38.5665 278.594 38.0723 277.348 37.084C276.102 36.0958 275.479 34.7637 275.479 33.0879L275.479 21.0782L272.148 21.0782C271.719 21.0782 271.411 20.9922 271.225 20.8204C271.038 20.6485 270.945 20.4265 270.945 20.1543C270.945 19.8965 271.038 19.6817 271.225 19.5098C271.411 19.3379 271.719 19.252 272.148 19.252L275.479 19.252L275.479 13.9239C275.479 13.4942 275.564 13.1862 275.736 13.0001C275.908 12.8139 276.123 12.7208 276.381 12.7208C276.653 12.7208 276.875 12.8139 277.047 13.0001C277.219 13.1862 277.305 13.4942 277.305 13.9239L277.305 19.252Z"/>
</g>
</g>
</svg>
