<?xml version="1.0" encoding="UTF-8" standalone="no"?>
<!DOCTYPE svg PUBLIC "-//W3C//DTD SVG 1.1//EN" "http://www.w3.org/Graphics/SVG/1.1/DTD/svg11.dtd">
<!-- Created with Vectornator (http://vectornator.io/) -->
<svg height="100%" stroke-miterlimit="10" style="fill-rule:nonzero;clip-rule:evenodd;stroke-linecap:round;stroke-linejoin:round;" version="1.1" viewBox="0 0 350 100" width="100%" xml:space="preserve" xmlns="http://www.w3.org/2000/svg" xmlns:vectornator="http://vectornator.io" xmlns:xlink="http://www.w3.org/1999/xlink">
<defs>
<clipPath id="TextBounds">
<rect height="97.4206" width="350" x="3" y="2.93567"/>
</clipPath>
<clipPath id="TextBounds_2">
<rect height="1" width="0" x="299.653" y="-80.803"/>
</clipPath>
</defs>
<clipPath id="ArtboardFrame">
<rect height="100" width="350" x="0" y="0"/>
</clipPath>
<g clip-path="url(#ArtboardFrame)" id="Layer-1" vectornator:layerName="Layer 1">
<g fill="#5bcacd" opacity="1" stroke="none">
<path clip-path="url(#TextBounds)" d="M56.7622 29.1544C56.7622 29.6492 56.5669 30.2612 56.1762 30.9904L55.5512 32.006L55.1606 34.0763L52.5044 39.7794L51.4497 43.7638L50.6684 44.7404C50.6684 45.4695 50.5838 46.0034 50.4145 46.3419C50.2453 46.6805 49.8742 47.1362 49.3012 47.7091L47.9341 49.0372C47.9341 50.9383 47.6997 52.2794 47.2309 53.0607L45.7075 55.6779L44.2622 60.4825C43.4549 62.3315 43.0512 63.4253 43.0512 63.7638C43.0512 63.6857 43.1033 63.881 43.2075 64.3497L42.7387 65.2091L41.9575 67.3575L41.2934 68.4122L40.8247 70.7169L40.0434 72.5919L40.1216 74.0763L38.6762 76.1075C38.4679 76.4461 38.3637 76.9539 38.3637 77.631L36.9966 78.4904C34.783 79.8966 33.1294 80.7299 32.0356 80.9904L31.2153 79.4669L29.3794 74.4279L28.5981 71.381L28.5981 71.3029L28.5981 70.2482L28.2856 69.3888L27.9341 69.4669L26.7622 66.1857L27.1528 65.2872C26.7361 65.157 26.4432 65.0138 26.2739 64.8575C26.1046 64.7013 25.9158 64.4148 25.7075 63.9982C25.9158 63.3732 26.02 63.0086 26.02 62.9044C26.02 62.6961 25.994 62.4747 25.9419 62.2404C25.7335 61.9799 25.5252 61.7456 25.3169 61.5372L24.1059 60.8341C23.8976 60.756 23.7934 60.3523 23.7934 59.6232L23.8716 58.6466L23.4809 58.0216L23.1294 56.7325L21.9575 55.6779L20.5903 52.0841L19.9653 51.0685L20.0434 50.0138L19.0669 48.6466L20.2778 47.631L19.5356 46.8888L18.8325 46.8888C18.5721 46.8888 18.3507 46.8628 18.1684 46.8107L15.7856 42.1622C16.0981 41.6935 16.2544 41.3289 16.2544 41.0685L16.02 40.17L14.7309 39.7013L13.5591 37.4747L12.8169 36.42L12.5825 34.7404L12.1137 33.8419L11.645 33.8419L10.7466 32.5138L11.0591 31.8497L11.1372 31.1466C11.1372 30.9383 11.3585 30.6388 11.8012 30.2482C12.7648 30.2482 13.5591 30.0398 14.1841 29.6232C14.8091 29.2065 15.421 28.4904 16.02 27.4747C16.3846 27.2404 16.658 27.1232 16.8403 27.1232C16.8924 27.1232 17.0747 27.1753 17.3872 27.2794L17.8559 28.7247L18.2856 29.8575C18.2856 30.0659 18.0643 30.4174 17.6216 30.9122L18.52 30.9122L18.6762 31.8497L19.145 34.1935C19.1971 34.3497 19.2231 34.5581 19.2231 34.8185C19.2231 35.3654 18.9888 35.8732 18.52 36.3419L19.4575 36.4982L19.6137 37.5529C19.6137 38.0216 19.7309 38.3081 19.9653 38.4122L20.8247 39.2325L21.645 42.0841L23.0512 44.4279L23.4028 46.6544L24.4184 48.4122L23.9497 49.7013L23.9497 50.7169C23.9497 51.3419 23.9953 51.7325 24.0864 51.8888C24.1776 52.045 24.4184 52.1622 24.8091 52.2404C25.1216 51.8758 25.395 51.6935 25.6294 51.6935C25.6815 51.6935 25.7335 51.7195 25.7856 51.7716C25.8898 51.8758 25.9679 51.9279 26.02 51.9279L27.3091 55.8732L29.0669 60.0919C29.171 60.4044 29.2231 60.7039 29.2231 60.9904L29.0669 62.5138C29.4575 62.9044 29.6919 63.3471 29.77 63.8419C30.1346 63.6857 30.408 63.6075 30.5903 63.6075C30.8768 63.6075 31.0591 63.7378 31.1372 63.9982L31.8012 66.1075L33.7934 69.7794L33.5591 71.1466L33.5591 71.2247C33.5591 71.7716 33.7544 72.2794 34.145 72.7482C34.5356 73.2169 34.9523 73.4513 35.395 73.4513C35.7856 73.4513 36.0721 73.2169 36.2544 72.7482L39.3012 65.0529L40.3559 63.2169C40.4341 62.67 40.5578 62.3185 40.727 62.1622C40.8963 62.006 41.2804 61.9279 41.8794 61.9279L41.8794 60.9122C41.8794 60.1049 42.0096 59.2977 42.27 58.4904L41.9575 57.8654L42.895 55.795L43.7934 52.9825L45.0044 52.2404C45.2648 51.9799 45.395 51.7716 45.395 51.6154L45.395 51.5372L45.0044 49.7013L46.9966 44.4279L46.9966 43.8419L46.9966 42.9044L47.6216 42.3185L47.0747 39.9357L47.3872 39.4669L46.9966 38.881L47.6997 37.7091L47.4653 37.2013L47.9341 36.7325C47.9861 36.2638 48.0252 35.9904 48.0512 35.9122C48.0773 35.8341 48.227 35.5281 48.5005 34.9943C48.7739 34.4604 49.0408 33.894 49.3012 33.295L49.8481 32.006C49.4835 31.5112 49.3012 31.1987 49.3012 31.0685C49.3012 30.6779 49.5226 30.144 49.9653 29.4669C50.0695 29.2586 50.1997 29.1544 50.3559 29.1544L53.0512 28.4122L55.5512 27.5529C56.3585 27.631 56.7622 28.1648 56.7622 29.1544Z"/>
<path clip-path="url(#TextBounds)" d="M92.5434 71.9279C92.5434 72.2664 92.4783 72.5659 92.3481 72.8263L91.5669 74.1935L89.7309 77.3575L88.0512 77.4747L86.9966 78.3341C86.7622 78.5685 86.3585 78.7247 85.7856 78.8029L78.7544 80.17L77.6606 80.5607L75.1606 80.3263L71.5669 80.6388L67.5044 80.4044L66.3716 80.4044C65.7986 79.9617 65.4471 79.7013 65.3169 79.6232L61.4887 78.256L60.1997 77.045L57.6606 75.2872L55.6294 72.5919L54.8481 71.9279C55.1606 71.3029 55.3169 70.743 55.3169 70.2482C55.3169 70.0398 55.2648 69.8836 55.1606 69.7794L54.1059 68.0997L53.8716 65.8732L53.7934 64.0763C53.7934 63.4773 53.9367 62.6831 54.2231 61.6935C54.6658 60.131 55.0304 59.1935 55.3169 58.881L56.7622 57.045L57.5044 55.3654L59.3403 53.6075L61.3325 50.9904L63.0903 50.0138L65.6294 48.256L67.3091 47.1232L67.895 46.7325L69.0669 46.4982L72.6216 45.3654L75.395 45.0529L77.0747 44.3497L77.895 44.2716C79.2231 44.2716 80.3429 44.9878 81.2544 46.42C81.7492 46.368 82.1137 46.0945 82.3481 45.5997L83.4028 46.4982L84.8481 47.2794L88.1294 50.4825C88.546 51.0034 88.8651 51.4526 89.0864 51.8302C89.3078 52.2078 89.5291 52.6049 89.7505 53.0216C89.9718 53.4383 90.1671 53.894 90.3364 54.3888C90.5057 54.8836 90.7596 55.6388 91.0981 56.6544L91.4106 57.631L91.02 57.7872L89.4966 57.4747L87.8169 58.0216L86.5278 57.7872L85.0825 58.1779L82.3481 57.8654L79.7309 58.0216L76.9966 57.5529L72.5434 57.631L70.3559 57.5529L65.0825 58.256L63.1684 58.1779L60.5122 58.9591L59.5747 59.1544L59.4184 60.0919C59.3664 60.743 59.2752 61.1857 59.145 61.42C59.0148 61.6544 58.7283 61.9279 58.2856 62.2404L58.3637 62.9825C59.2231 63.6336 59.6789 64.0372 59.7309 64.1935L60.7466 68.1779L61.2544 69.1544C60.994 69.4148 60.8637 69.6492 60.8637 69.8575C60.8637 69.8575 60.8703 69.8706 60.8833 69.8966C60.8963 69.9227 60.9158 69.9617 60.9419 70.0138L62.4262 70.4825L62.7778 71.4591C63.0382 72.3706 63.3768 72.9305 63.7934 73.1388L65.9028 73.9982L66.6059 75.5216C66.9705 75.7039 67.5565 75.8471 68.3637 75.9513L68.9106 76.9669L70.1216 77.1232L73.4809 78.3341L76.2934 77.7872L83.7153 76.5763L85.3169 75.5997L87.8169 74.0763L89.8872 71.381C90.2518 70.9383 90.6815 70.7169 91.1762 70.7169C92.0877 70.7169 92.5434 71.1206 92.5434 71.9279ZM83.3247 53.5294C83.3247 53.1128 82.8429 52.2404 81.8794 50.9122L79.1841 48.9591L78.2856 48.0216L76.9966 47.9435L74.0278 47.7091L73.3247 47.8654L71.645 48.8029L69.4966 49.3107L66.7622 50.3263L65.7075 50.7169L64.4575 52.5919C63.6762 53.1388 63.2466 53.4773 63.1684 53.6075L63.0122 54.0763L67.8169 54.4279L68.3637 54.3497L69.2622 54.0763L70.1216 54.2716L72.4262 54.7404L72.5434 54.7404L75.1606 54.2716L75.9809 54.0763L76.6059 54.9747L77.5044 54.9747L80.9419 54.2716L82.3481 54.4279C82.9992 54.3497 83.3247 54.0503 83.3247 53.5294Z"/>
<path clip-path="url(#TextBounds)" d="M126.567 47.2013C126.567 47.3315 126.515 47.4487 126.411 47.5529L124.184 49.3107L122.973 50.5607L122.27 50.8341L121.215 50.17L120.512 49.4669L118.168 49.3888L115.942 48.4904L115.082 48.256C114.744 48.8289 114.392 49.187 114.028 49.3302C113.663 49.4734 112.921 49.545 111.801 49.545L110.512 50.0919L109.536 49.7794L108.754 50.4044L105.629 52.8263C105.109 53.5034 104.809 54.7534 104.731 56.5763L104.653 59.545L103.793 60.0919C104.314 60.9773 104.575 61.8367 104.575 62.67L105.161 62.67L105.239 63.7638L105.395 68.8029L105.473 71.4591L105.317 73.8419C104.51 74.3107 104.106 74.6883 104.106 74.9747C104.106 75.0268 104.21 75.2612 104.418 75.6779L105.473 75.4435L105.395 75.795L105.707 77.3575L105.707 77.5529C105.707 77.9435 105.499 78.3471 105.082 78.7638C104.666 79.1805 104.236 79.4148 103.793 79.4669L102.27 79.6232L99.9653 80.8341L98.9887 80.2482L99.145 79.4669L99.6919 77.2013L99.4575 74.1935L99.6919 73.7638L100.512 73.7638L100.512 73.295L100.434 72.5919L99.9653 71.4591L99.8481 69.8575L99.5356 68.4904L99.5356 68.4122L99.5356 67.3575L99.6137 66.1075C99.7179 65.9773 99.8286 65.8406 99.9458 65.6974C100.063 65.5542 100.219 65.3393 100.415 65.0529C100.61 64.7664 100.825 64.4148 101.059 63.9982L101.45 63.0607L101.372 62.67C100.148 62.67 99.5356 62.3966 99.5356 61.8497L99.6919 58.881L99.4575 55.9513C99.5356 55.6909 99.7049 55.4435 99.9653 55.2091L99.9653 54.0763L99.4575 53.6075L99.3012 52.67L99.2231 50.5607L98.3637 48.881C98.546 47.9435 98.9627 47.1492 99.6137 46.4982L102.036 45.2091L103.481 44.2716C104.21 44.4799 104.711 44.7273 104.985 45.0138C105.258 45.3003 105.395 45.769 105.395 46.42L105.395 46.6544L105.395 47.7091C105.395 48.6727 105.603 49.1544 106.02 49.1544L106.176 49.1544L108.168 48.0997L110.122 47.3575L113.481 45.5216L114.575 45.0529L115.473 45.2872L117.231 44.7404C118.247 44.4279 119.015 44.2716 119.536 44.2716L121.215 44.4279C121.736 45.157 122.166 45.5216 122.504 45.5216C122.556 45.4956 122.596 45.476 122.622 45.463C122.648 45.45 122.687 45.4435 122.739 45.4435L123.637 44.9747C123.846 44.8706 124.002 44.8185 124.106 44.8185C124.757 44.8185 125.369 45.17 125.942 45.8732C126.359 46.368 126.567 46.8107 126.567 47.2013Z"/>
<path clip-path="url(#TextBounds)" d="M162.504 77.2794L162.114 78.0216L161.489 78.9591L160.356 79.3888L158.754 80.2482L157.231 80.7169C156.267 81.1075 155.708 81.3029 155.551 81.3029C155.369 81.3029 155.193 81.2052 155.024 81.0099C154.855 80.8146 154.77 80.6388 154.77 80.4825C154.77 80.2221 154.9 79.6362 155.161 78.7247C155.291 78.4643 155.395 78.0086 155.473 77.3575L154.692 77.8654L151.176 79.0372C150.473 79.3758 149.77 79.545 149.067 79.545L148.989 79.545L147.465 79.545L145.629 80.4044L144.379 80.5607L140.747 81.3029L139.262 81.0685L138.207 81.4591L137.465 81.6154L136.293 81.5372L133.715 80.9904L131.957 80.8341C130.76 80.6779 129.724 80.2677 128.852 79.6036C127.98 78.9396 127.335 78.0867 126.918 77.045L125.864 76.6544L125.629 75.6779L125.551 74.9747L125.004 73.1388L126.45 70.2482L126.918 68.9591C127.075 68.6206 127.556 68.1258 128.364 67.4747L131.411 64.9747L132.7 64.506L134.848 63.6075C134.874 63.6075 134.926 63.6141 135.004 63.6271C135.083 63.6401 135.161 63.6596 135.239 63.6857C135.76 62.5659 136.749 62.006 138.207 62.006L138.442 61.7716L139.262 61.7716C139.601 61.3549 139.939 61.0685 140.278 60.9122C140.616 60.756 141.254 60.5867 142.192 60.4044L147.075 59.545L148.52 59.7013L150.356 59.3107L153.637 58.9591C154.757 58.6987 155.317 58.1648 155.317 57.3575C155.317 57.2534 155.291 57.1753 155.239 57.1232L154.848 55.3654L155.161 52.8263C155.082 52.2794 154.887 51.8823 154.575 51.6349C154.262 51.3875 153.793 51.2247 153.168 51.1466L152.622 50.2482C152.049 49.3107 151.58 48.7052 151.215 48.4318C150.851 48.1583 150.161 47.9174 149.145 47.7091L146.918 47.2013L144.77 47.1232L143.715 47.2794C143.481 47.1753 143.299 47.045 143.168 46.8888C143.038 46.7325 142.934 46.4982 142.856 46.1857L141.801 46.6544L140.59 47.7872L136.762 49.7013C135.955 50.144 135.421 50.5737 135.161 50.9904L134.614 51.7716C134.353 52.1883 134.002 52.3966 133.559 52.3966L132.778 52.2404L131.645 51.6935L130.434 51.4591C130.043 51.3289 129.653 51.1075 129.262 50.795C128.872 50.4825 128.676 50.1961 128.676 49.9357C128.676 49.7794 128.702 49.7013 128.754 49.7013L129.418 49.2325L130.668 48.256L132.036 48.0216L134.106 46.9669L136.684 46.1075L137.387 45.9513L139.067 45.0529L140.434 45.2872L145.161 44.2716L147.153 44.3497L148.676 44.3497L150.278 44.8966L154.926 45.795L155.629 46.1857L155.629 46.7325L155.082 47.045C155.239 47.9565 155.564 48.4122 156.059 48.4122C156.111 48.3862 156.15 48.3667 156.176 48.3536C156.202 48.3406 156.241 48.3341 156.293 48.3341L157.387 47.8654L157.543 47.8654C157.804 47.8654 157.973 47.9956 158.051 48.256L158.832 49.7013L159.653 50.3263L159.653 51.2247L159.497 53.2169C159.497 54.0763 159.913 54.8185 160.747 55.4435L161.254 61.2247L160.2 62.67L161.411 64.0763L161.489 64.5841L161.254 68.256L161.567 71.0685L161.567 71.6935L161.567 72.5919L161.02 72.7482C161.072 73.3992 161.111 73.8159 161.137 73.9982C161.163 74.1805 161.254 74.4474 161.411 74.799C161.567 75.1505 161.749 75.5607 161.957 76.0294L162.504 77.2794ZM156.293 70.4825C155.903 70.144 155.655 69.8575 155.551 69.6232L155.707 68.0216L155.395 64.4279L155.864 63.3732L154.614 62.67L153.95 62.8263L150.356 62.5919L148.676 62.67L147.387 61.7716L146.606 62.2404L144.457 62.3185L142.934 62.9044L142.036 62.3966L140.942 63.0607L135.082 65.8732L133.793 66.8107L132.778 68.3341L131.411 69.1544C131.202 69.3628 131.098 69.5971 131.098 69.8575C131.098 69.8575 131.105 69.8706 131.118 69.8966C131.131 69.9227 131.15 69.9617 131.176 70.0138L131.489 70.4825L131.411 70.8341L132.27 74.3497L131.411 76.5763L132.036 77.3575L133.09 76.1075C133.455 76.42 133.793 76.6805 134.106 76.8888C134.418 77.0971 134.796 77.2729 135.239 77.4161C135.681 77.5594 136.241 77.7091 136.918 77.8654L137.739 78.9591L140.434 79.2325L141.176 78.4904L141.957 78.881L142.504 78.5685L142.934 78.3341C143.559 78.5424 143.924 78.6466 144.028 78.6466C144.809 78.6466 145.825 78.282 147.075 77.5529C147.153 77.5008 147.257 77.4422 147.387 77.3771C147.517 77.312 147.713 77.2013 147.973 77.045C150.317 77.045 151.866 76.5633 152.622 75.5997L153.403 74.5841L155.317 72.9825L155.395 72.5138L155.317 72.006C155.708 71.8758 155.955 71.7195 156.059 71.5372C156.163 71.3549 156.241 71.0034 156.293 70.4825Z"/>
<path clip-path="url(#TextBounds)" d="M233.573 23.9357L233.573 79.9357L227.893 79.9357L227.893 35.1357L205.893 72.8157L203.093 72.8157L181.093 35.3757L181.093 79.9357L175.413 79.9357L175.413 23.9357L180.293 23.9357L204.613 65.4557L228.693 23.9357L233.573 23.9357Z"/>
<path clip-path="url(#TextBounds)" d="M287.253 60.6557L252.053 60.6557C252.373 65.029 254.053 68.5623 257.093 71.2557C260.133 73.949 263.973 75.2957 268.613 75.2957C271.227 75.2957 273.627 74.829 275.813 73.8957C278 72.9623 279.893 71.589 281.493 69.7757L284.693 73.4557C282.827 75.6957 280.493 77.4023 277.693 78.5757C274.893 79.749 271.813 80.3357 268.453 80.3357C264.133 80.3357 260.307 79.4157 256.973 77.5757C253.64 75.7357 251.04 73.189 249.173 69.9357C247.307 66.6823 246.373 63.0023 246.373 58.8957C246.373 54.789 247.267 51.109 249.053 47.8557C250.84 44.6023 253.293 42.069 256.413 40.2557C259.533 38.4423 263.04 37.5357 266.933 37.5357C270.827 37.5357 274.32 38.4423 277.413 40.2557C280.507 42.069 282.933 44.589 284.693 47.8157C286.453 51.0423 287.333 54.7357 287.333 58.8957L287.253 60.6557ZM266.933 42.4157C262.88 42.4157 259.48 43.709 256.733 46.2957C253.987 48.8823 252.427 52.2557 252.053 56.4157L281.893 56.4157C281.52 52.2557 279.96 48.8823 277.213 46.2957C274.467 43.709 271.04 42.4157 266.933 42.4157Z"/>
<path clip-path="url(#TextBounds)" d="M337.333 20.5757L337.333 79.9357L331.893 79.9357L331.893 71.6157C330.187 74.4423 327.933 76.6023 325.133 78.0957C322.333 79.589 319.173 80.3357 315.653 80.3357C311.707 80.3357 308.133 79.429 304.933 77.6157C301.733 75.8023 299.227 73.269 297.413 70.0157C295.6 66.7623 294.693 63.0557 294.693 58.8957C294.693 54.7357 295.6 51.029 297.413 47.7757C299.227 44.5223 301.733 42.0023 304.933 40.2157C308.133 38.429 311.707 37.5357 315.653 37.5357C319.067 37.5357 322.147 38.2423 324.893 39.6557C327.64 41.069 329.893 43.1357 331.653 45.8557L331.653 20.5757L337.333 20.5757ZM316.133 75.2957C319.067 75.2957 321.72 74.6157 324.093 73.2557C326.467 71.8957 328.333 69.9623 329.693 67.4557C331.053 64.949 331.733 62.0957 331.733 58.8957C331.733 55.6957 331.053 52.8423 329.693 50.3357C328.333 47.829 326.467 45.8957 324.093 44.5357C321.72 43.1757 319.067 42.4957 316.133 42.4957C313.147 42.4957 310.467 43.1757 308.093 44.5357C305.72 45.8957 303.853 47.829 302.493 50.3357C301.133 52.8423 300.453 55.6957 300.453 58.8957C300.453 62.0957 301.133 64.949 302.493 67.4557C303.853 69.9623 305.72 71.8957 308.093 73.2557C310.467 74.6157 313.147 75.2957 316.133 75.2957Z"/>
</g>
<g fill="#5bcacd" opacity="1" stroke="none"/>
</g>
</svg>
