<svg width="560" height="543" viewBox="0 0 560 543" fill="none" xmlns="http://www.w3.org/2000/svg">
<path fill-rule="evenodd" clip-rule="evenodd" d="M291.636 0.336948C352.271 1.24148 403.459 37.5101 450.644 72.2701C495.605 105.392 538.937 143.253 554.55 194.02C569.829 243.699 548.616 293.99 534.174 343.876C518.753 397.141 512.893 456.602 467.897 493.336C421.012 531.611 354.315 546.793 291.636 541.875C231.822 537.181 184.62 499.569 136.106 467.3C87.6795 435.09 31.9012 406.418 10.9596 355.184C-10.3759 302.985 2.43612 244.749 23.8109 192.564C44.4678 142.131 82.4293 100.755 128.806 67.469C176.794 33.0267 230.59 -0.573715 291.636 0.336948Z" fill="#5BCACD"/>
</svg>
